%TF.GenerationSoftware,KiCad,Pcbnew,8.0.9-8.0.9-0~ubuntu22.04.1*%
%TF.CreationDate,2025-10-19T14:14:38+05:45*%
%TF.ProjectId,camerapcb,63616d65-7261-4706-9362-2e6b69636164,rev?*%
%TF.SameCoordinates,Original*%
%TF.FileFunction,Copper,L2,Bot*%
%TF.FilePolarity,Positive*%
%FSLAX46Y46*%
G04 Gerber Fmt 4.6, Leading zero omitted, Abs format (unit mm)*
G04 Created by KiCad (PCBNEW 8.0.9-8.0.9-0~ubuntu22.04.1) date 2025-10-19 14:14:38*
%MOMM*%
%LPD*%
G01*
G04 APERTURE LIST*
%TA.AperFunction,ComponentPad*%
%ADD10O,2.200000X1.700000*%
%TD*%
%TA.AperFunction,ComponentPad*%
%ADD11O,2.200000X8.000000*%
%TD*%
%TA.AperFunction,ComponentPad*%
%ADD12O,4.000000X8.000000*%
%TD*%
%TA.AperFunction,ViaPad*%
%ADD13C,1.500000*%
%TD*%
%TA.AperFunction,Conductor*%
%ADD14C,0.300000*%
%TD*%
G04 APERTURE END LIST*
D10*
%TO.P,J1,1,Pin_1*%
%TO.N,+3V3*%
X133375000Y-101600000D03*
%TO.P,J1,2,Pin_2*%
%TO.N,/U1TX*%
X133375000Y-104140000D03*
%TO.P,J1,3,Pin_3*%
%TO.N,/U1RX*%
X133375000Y-106680000D03*
%TO.P,J1,4,Pin_4*%
%TO.N,/SIGNAL*%
X133375000Y-109220000D03*
%TO.P,J1,5,Pin_5*%
%TO.N,GND*%
X133375000Y-111760000D03*
%TD*%
D11*
%TO.P,SW1,1,COM*%
%TO.N,GND*%
X146310000Y-106900000D03*
D12*
%TO.P,SW1,2,ON*%
%TO.N,Net-(SW1-ON)*%
X142000000Y-106890000D03*
D11*
%TO.P,SW1,3,NC*%
%TO.N,unconnected-(SW1-NC-Pad3)*%
X151310000Y-106920000D03*
%TD*%
D13*
%TO.N,+3V3*%
X159387500Y-112415000D03*
X159507500Y-100275000D03*
%TO.N,GND*%
X156450000Y-116100000D03*
X162830000Y-108130000D03*
X133450000Y-116875000D03*
X156200000Y-101850000D03*
X133500000Y-96050000D03*
%TO.N,/SIGNAL*%
X138827500Y-115575000D03*
X155702500Y-112875000D03*
%TO.N,/U1RX*%
X152565000Y-113887500D03*
X140927500Y-114000000D03*
%TD*%
D14*
%TO.N,+3V3*%
X159507500Y-112295000D02*
X159387500Y-112415000D01*
X159507500Y-100275000D02*
X159507500Y-112295000D01*
%TO.N,GND*%
X162830000Y-108130000D02*
X162842500Y-108130000D01*
%TO.N,/SIGNAL*%
X153002500Y-115575000D02*
X138827500Y-115575000D01*
X155702500Y-112875000D02*
X153002500Y-115575000D01*
%TO.N,/U1RX*%
X152452500Y-114000000D02*
X140927500Y-114000000D01*
X152565000Y-113887500D02*
X152452500Y-114000000D01*
%TD*%
%TA.AperFunction,Conductor*%
%TO.N,GND*%
G36*
X186265039Y-92355185D02*
G01*
X186310794Y-92407989D01*
X186322000Y-92459500D01*
X186322000Y-121610500D01*
X186302315Y-121677539D01*
X186249511Y-121723294D01*
X186198000Y-121734500D01*
X130352000Y-121734500D01*
X130284961Y-121714815D01*
X130239206Y-121662011D01*
X130228000Y-121610500D01*
X130228000Y-115574997D01*
X137572223Y-115574997D01*
X137572223Y-115575002D01*
X137591293Y-115792975D01*
X137591293Y-115792979D01*
X137647922Y-116004322D01*
X137647924Y-116004326D01*
X137647925Y-116004330D01*
X137683337Y-116080272D01*
X137740397Y-116202638D01*
X137740398Y-116202639D01*
X137865902Y-116381877D01*
X138020623Y-116536598D01*
X138199861Y-116662102D01*
X138398170Y-116754575D01*
X138609523Y-116811207D01*
X138792426Y-116827208D01*
X138827498Y-116830277D01*
X138827500Y-116830277D01*
X138827502Y-116830277D01*
X138855754Y-116827805D01*
X139045477Y-116811207D01*
X139256830Y-116754575D01*
X139455139Y-116662102D01*
X139634377Y-116536598D01*
X139789098Y-116381877D01*
X139861571Y-116278374D01*
X139916147Y-116234751D01*
X139963145Y-116225500D01*
X153066571Y-116225500D01*
X153151115Y-116208682D01*
X153192244Y-116200501D01*
X153310627Y-116151465D01*
X153417169Y-116080277D01*
X155356387Y-114141057D01*
X155417708Y-114107574D01*
X155476162Y-114108966D01*
X155484523Y-114111207D01*
X155670037Y-114127437D01*
X155702498Y-114130277D01*
X155702500Y-114130277D01*
X155702502Y-114130277D01*
X155730754Y-114127805D01*
X155920477Y-114111207D01*
X156131830Y-114054575D01*
X156330139Y-113962102D01*
X156509377Y-113836598D01*
X156664098Y-113681877D01*
X156789602Y-113502639D01*
X156882075Y-113304330D01*
X156938707Y-113092977D01*
X156957777Y-112875000D01*
X156938707Y-112657023D01*
X156882075Y-112445670D01*
X156867772Y-112414997D01*
X158132223Y-112414997D01*
X158132223Y-112415002D01*
X158151293Y-112632975D01*
X158151293Y-112632979D01*
X158207922Y-112844322D01*
X158207924Y-112844326D01*
X158207925Y-112844330D01*
X158222227Y-112875000D01*
X158300397Y-113042638D01*
X158300398Y-113042639D01*
X158425902Y-113221877D01*
X158580623Y-113376598D01*
X158759861Y-113502102D01*
X158958170Y-113594575D01*
X159169523Y-113651207D01*
X159352426Y-113667208D01*
X159387498Y-113670277D01*
X159387500Y-113670277D01*
X159387502Y-113670277D01*
X159415754Y-113667805D01*
X159605477Y-113651207D01*
X159816830Y-113594575D01*
X160015139Y-113502102D01*
X160194377Y-113376598D01*
X160349098Y-113221877D01*
X160474602Y-113042639D01*
X160567075Y-112844330D01*
X160623707Y-112632977D01*
X160642777Y-112415000D01*
X160623707Y-112197023D01*
X160567075Y-111985670D01*
X160474602Y-111787362D01*
X160474600Y-111787359D01*
X160474599Y-111787357D01*
X160349097Y-111608121D01*
X160194319Y-111453343D01*
X160160834Y-111392020D01*
X160158000Y-111365662D01*
X160158000Y-101410644D01*
X160177685Y-101343605D01*
X160210877Y-101309069D01*
X160247022Y-101283760D01*
X160314377Y-101236598D01*
X160469098Y-101081877D01*
X160594602Y-100902639D01*
X160687075Y-100704330D01*
X160743707Y-100492977D01*
X160762777Y-100275000D01*
X160743707Y-100057023D01*
X160687075Y-99845670D01*
X160594602Y-99647362D01*
X160594600Y-99647359D01*
X160594599Y-99647357D01*
X160469099Y-99468124D01*
X160469096Y-99468121D01*
X160314377Y-99313402D01*
X160135139Y-99187898D01*
X160135140Y-99187898D01*
X160135138Y-99187897D01*
X160035984Y-99141661D01*
X159936830Y-99095425D01*
X159936826Y-99095424D01*
X159936822Y-99095422D01*
X159725477Y-99038793D01*
X159507502Y-99019723D01*
X159507498Y-99019723D01*
X159362182Y-99032436D01*
X159289523Y-99038793D01*
X159289520Y-99038793D01*
X159078177Y-99095422D01*
X159078168Y-99095426D01*
X158879861Y-99187898D01*
X158879857Y-99187900D01*
X158700621Y-99313402D01*
X158545902Y-99468121D01*
X158420400Y-99647357D01*
X158420398Y-99647361D01*
X158327926Y-99845668D01*
X158327922Y-99845677D01*
X158271293Y-100057020D01*
X158271293Y-100057024D01*
X158252223Y-100274997D01*
X158252223Y-100275002D01*
X158271293Y-100492975D01*
X158271293Y-100492979D01*
X158327922Y-100704322D01*
X158327924Y-100704326D01*
X158327925Y-100704330D01*
X158374161Y-100803484D01*
X158420397Y-100902638D01*
X158420398Y-100902639D01*
X158545902Y-101081877D01*
X158700623Y-101236598D01*
X158700624Y-101236599D01*
X158804123Y-101309069D01*
X158847748Y-101363645D01*
X158857000Y-101410644D01*
X158857000Y-111203604D01*
X158837315Y-111270643D01*
X158785407Y-111315985D01*
X158759864Y-111327896D01*
X158759860Y-111327898D01*
X158580621Y-111453402D01*
X158425902Y-111608121D01*
X158300400Y-111787357D01*
X158300398Y-111787361D01*
X158207926Y-111985668D01*
X158207922Y-111985677D01*
X158151293Y-112197020D01*
X158151293Y-112197023D01*
X158146889Y-112247357D01*
X158132223Y-112414997D01*
X156867772Y-112414997D01*
X156789602Y-112247362D01*
X156789600Y-112247359D01*
X156789599Y-112247357D01*
X156664099Y-112068124D01*
X156605975Y-112010000D01*
X156509377Y-111913402D01*
X156330139Y-111787898D01*
X156330140Y-111787898D01*
X156330138Y-111787897D01*
X156230984Y-111741661D01*
X156131830Y-111695425D01*
X156131826Y-111695424D01*
X156131822Y-111695422D01*
X155920477Y-111638793D01*
X155702502Y-111619723D01*
X155702498Y-111619723D01*
X155557182Y-111632436D01*
X155484523Y-111638793D01*
X155484520Y-111638793D01*
X155273177Y-111695422D01*
X155273168Y-111695426D01*
X155074861Y-111787898D01*
X155074857Y-111787900D01*
X154895621Y-111913402D01*
X154740902Y-112068121D01*
X154615400Y-112247357D01*
X154615398Y-112247361D01*
X154522926Y-112445668D01*
X154522922Y-112445677D01*
X154466293Y-112657020D01*
X154466293Y-112657024D01*
X154447223Y-112874997D01*
X154447223Y-112875002D01*
X154466292Y-113092970D01*
X154466294Y-113092983D01*
X154468535Y-113101346D01*
X154466868Y-113171196D01*
X154436439Y-113221113D01*
X153992555Y-113664997D01*
X153931232Y-113698482D01*
X153861540Y-113693498D01*
X153805607Y-113651626D01*
X153785099Y-113609409D01*
X153781124Y-113594575D01*
X153744575Y-113458170D01*
X153652102Y-113259862D01*
X153652100Y-113259859D01*
X153652099Y-113259857D01*
X153526599Y-113080624D01*
X153457070Y-113011095D01*
X153371877Y-112925902D01*
X153221242Y-112820426D01*
X153192638Y-112800397D01*
X153093484Y-112754161D01*
X152994330Y-112707925D01*
X152994326Y-112707924D01*
X152994322Y-112707922D01*
X152782977Y-112651293D01*
X152565002Y-112632223D01*
X152564998Y-112632223D01*
X152419682Y-112644936D01*
X152347023Y-112651293D01*
X152347020Y-112651293D01*
X152135677Y-112707922D01*
X152135668Y-112707926D01*
X151937361Y-112800398D01*
X151937357Y-112800400D01*
X151758121Y-112925902D01*
X151603402Y-113080621D01*
X151477900Y-113259857D01*
X151477899Y-113259860D01*
X151477898Y-113259862D01*
X151469484Y-113277904D01*
X151423314Y-113330343D01*
X151357103Y-113349500D01*
X142063144Y-113349500D01*
X141996105Y-113329815D01*
X141961569Y-113296623D01*
X141889099Y-113193124D01*
X141866466Y-113170491D01*
X141734377Y-113038402D01*
X141573711Y-112925902D01*
X141555138Y-112912897D01*
X141455984Y-112866661D01*
X141356830Y-112820425D01*
X141356826Y-112820424D01*
X141356822Y-112820422D01*
X141145477Y-112763793D01*
X140927502Y-112744723D01*
X140927498Y-112744723D01*
X140782182Y-112757436D01*
X140709523Y-112763793D01*
X140709520Y-112763793D01*
X140498177Y-112820422D01*
X140498168Y-112820426D01*
X140299861Y-112912898D01*
X140299857Y-112912900D01*
X140120621Y-113038402D01*
X139965902Y-113193121D01*
X139840400Y-113372357D01*
X139840398Y-113372361D01*
X139747926Y-113570668D01*
X139747922Y-113570677D01*
X139691293Y-113782020D01*
X139691293Y-113782024D01*
X139672223Y-113999997D01*
X139672223Y-114000002D01*
X139691293Y-114217975D01*
X139691293Y-114217979D01*
X139746685Y-114424705D01*
X139745022Y-114494555D01*
X139705859Y-114552417D01*
X139641631Y-114579921D01*
X139572729Y-114568334D01*
X139555786Y-114558372D01*
X139547281Y-114552417D01*
X139455139Y-114487898D01*
X139256830Y-114395425D01*
X139256826Y-114395424D01*
X139256822Y-114395422D01*
X139045477Y-114338793D01*
X138827502Y-114319723D01*
X138827498Y-114319723D01*
X138682182Y-114332436D01*
X138609523Y-114338793D01*
X138609520Y-114338793D01*
X138398177Y-114395422D01*
X138398168Y-114395426D01*
X138199861Y-114487898D01*
X138199857Y-114487900D01*
X138020621Y-114613402D01*
X137865902Y-114768121D01*
X137740400Y-114947357D01*
X137740398Y-114947361D01*
X137647926Y-115145668D01*
X137647922Y-115145677D01*
X137591293Y-115357020D01*
X137591293Y-115357024D01*
X137572223Y-115574997D01*
X130228000Y-115574997D01*
X130228000Y-101493713D01*
X131774500Y-101493713D01*
X131774500Y-101706286D01*
X131807753Y-101916239D01*
X131873444Y-102118414D01*
X131969951Y-102307820D01*
X132094890Y-102479786D01*
X132245213Y-102630109D01*
X132417182Y-102755050D01*
X132425946Y-102759516D01*
X132476742Y-102807491D01*
X132493536Y-102875312D01*
X132470998Y-102941447D01*
X132425946Y-102980484D01*
X132417182Y-102984949D01*
X132245213Y-103109890D01*
X132094890Y-103260213D01*
X131969951Y-103432179D01*
X131873444Y-103621585D01*
X131807753Y-103823760D01*
X131790675Y-103931588D01*
X131774500Y-104033713D01*
X131774500Y-104246287D01*
X131807754Y-104456243D01*
X131812383Y-104470491D01*
X131873444Y-104658414D01*
X131969951Y-104847820D01*
X132094890Y-105019786D01*
X132245213Y-105170109D01*
X132417182Y-105295050D01*
X132425946Y-105299516D01*
X132476742Y-105347491D01*
X132493536Y-105415312D01*
X132470998Y-105481447D01*
X132425946Y-105520484D01*
X132417182Y-105524949D01*
X132245213Y-105649890D01*
X132094890Y-105800213D01*
X131969951Y-105972179D01*
X131873444Y-106161585D01*
X131807753Y-106363760D01*
X131774500Y-106573713D01*
X131774500Y-106786286D01*
X131807753Y-106996239D01*
X131873444Y-107198414D01*
X131969951Y-107387820D01*
X132094890Y-107559786D01*
X132245213Y-107710109D01*
X132417182Y-107835050D01*
X132425946Y-107839516D01*
X132476742Y-107887491D01*
X132493536Y-107955312D01*
X132470998Y-108021447D01*
X132425946Y-108060484D01*
X132417182Y-108064949D01*
X132245213Y-108189890D01*
X132094890Y-108340213D01*
X131969951Y-108512179D01*
X131873444Y-108701585D01*
X131807753Y-108903760D01*
X131774500Y-109113713D01*
X131774500Y-109326287D01*
X131807754Y-109536243D01*
X131849858Y-109665826D01*
X131873444Y-109738414D01*
X131969951Y-109927820D01*
X132094890Y-110099786D01*
X132245213Y-110250109D01*
X132417179Y-110375048D01*
X132417181Y-110375049D01*
X132417184Y-110375051D01*
X132426493Y-110379794D01*
X132477290Y-110427766D01*
X132494087Y-110495587D01*
X132471552Y-110561722D01*
X132426502Y-110600762D01*
X132417443Y-110605378D01*
X132245540Y-110730272D01*
X132245535Y-110730276D01*
X132095276Y-110880535D01*
X132095272Y-110880540D01*
X131970379Y-111052442D01*
X131873904Y-111241782D01*
X131808242Y-111443870D01*
X131808242Y-111443873D01*
X131797769Y-111510000D01*
X132941988Y-111510000D01*
X132909075Y-111567007D01*
X132875000Y-111694174D01*
X132875000Y-111825826D01*
X132909075Y-111952993D01*
X132941988Y-112010000D01*
X131797769Y-112010000D01*
X131808242Y-112076126D01*
X131808242Y-112076129D01*
X131873904Y-112278217D01*
X131970379Y-112467557D01*
X132095272Y-112639459D01*
X132095276Y-112639464D01*
X132245535Y-112789723D01*
X132245540Y-112789727D01*
X132417442Y-112914620D01*
X132606782Y-113011095D01*
X132808870Y-113076757D01*
X133018754Y-113110000D01*
X133125000Y-113110000D01*
X133125000Y-112193012D01*
X133182007Y-112225925D01*
X133309174Y-112260000D01*
X133440826Y-112260000D01*
X133567993Y-112225925D01*
X133625000Y-112193012D01*
X133625000Y-113110000D01*
X133731246Y-113110000D01*
X133941127Y-113076757D01*
X133941130Y-113076757D01*
X134143217Y-113011095D01*
X134332557Y-112914620D01*
X134504459Y-112789727D01*
X134504464Y-112789723D01*
X134654723Y-112639464D01*
X134654727Y-112639459D01*
X134779620Y-112467557D01*
X134876095Y-112278217D01*
X134941757Y-112076129D01*
X134941757Y-112076126D01*
X134952231Y-112010000D01*
X133808012Y-112010000D01*
X133840925Y-111952993D01*
X133875000Y-111825826D01*
X133875000Y-111694174D01*
X133840925Y-111567007D01*
X133808012Y-111510000D01*
X134952231Y-111510000D01*
X134941757Y-111443873D01*
X134941757Y-111443870D01*
X134876095Y-111241782D01*
X134779620Y-111052442D01*
X134654727Y-110880540D01*
X134654723Y-110880535D01*
X134504464Y-110730276D01*
X134504459Y-110730272D01*
X134332555Y-110605377D01*
X134323500Y-110600763D01*
X134272706Y-110552788D01*
X134255912Y-110484966D01*
X134278451Y-110418832D01*
X134323508Y-110379793D01*
X134332816Y-110375051D01*
X134412007Y-110317515D01*
X134504786Y-110250109D01*
X134504788Y-110250106D01*
X134504792Y-110250104D01*
X134655104Y-110099792D01*
X134655106Y-110099788D01*
X134655109Y-110099786D01*
X134780048Y-109927820D01*
X134780047Y-109927820D01*
X134780051Y-109927816D01*
X134876557Y-109738412D01*
X134942246Y-109536243D01*
X134975500Y-109326287D01*
X134975500Y-109113713D01*
X134942246Y-108903757D01*
X134876557Y-108701588D01*
X134780051Y-108512184D01*
X134780049Y-108512181D01*
X134780048Y-108512179D01*
X134655109Y-108340213D01*
X134504786Y-108189890D01*
X134332820Y-108064951D01*
X134332115Y-108064591D01*
X134324054Y-108060485D01*
X134273259Y-108012512D01*
X134256463Y-107944692D01*
X134278999Y-107878556D01*
X134324054Y-107839515D01*
X134332816Y-107835051D01*
X134354789Y-107819086D01*
X134504786Y-107710109D01*
X134504788Y-107710106D01*
X134504792Y-107710104D01*
X134655104Y-107559792D01*
X134655106Y-107559788D01*
X134655109Y-107559786D01*
X134780048Y-107387820D01*
X134780047Y-107387820D01*
X134780051Y-107387816D01*
X134876557Y-107198412D01*
X134942246Y-106996243D01*
X134975500Y-106786287D01*
X134975500Y-106573713D01*
X134942246Y-106363757D01*
X134876557Y-106161588D01*
X134780051Y-105972184D01*
X134780049Y-105972181D01*
X134780048Y-105972179D01*
X134655109Y-105800213D01*
X134504786Y-105649890D01*
X134332820Y-105524951D01*
X134332115Y-105524591D01*
X134324054Y-105520485D01*
X134273259Y-105472512D01*
X134256463Y-105404692D01*
X134278999Y-105338556D01*
X134324054Y-105299515D01*
X134332816Y-105295051D01*
X134354789Y-105279086D01*
X134504786Y-105170109D01*
X134504788Y-105170106D01*
X134504792Y-105170104D01*
X134655104Y-105019792D01*
X134655106Y-105019788D01*
X134655109Y-105019786D01*
X134780048Y-104847820D01*
X134780047Y-104847820D01*
X134780051Y-104847816D01*
X134830111Y-104749568D01*
X139499500Y-104749568D01*
X139499500Y-109030431D01*
X139530942Y-109309494D01*
X139530945Y-109309512D01*
X139593439Y-109583317D01*
X139593443Y-109583329D01*
X139686200Y-109848411D01*
X139808053Y-110101442D01*
X139808055Y-110101445D01*
X139957477Y-110339248D01*
X139986029Y-110375051D01*
X140127769Y-110552788D01*
X140132584Y-110558825D01*
X140331175Y-110757416D01*
X140550752Y-110932523D01*
X140788555Y-111081945D01*
X141041592Y-111203801D01*
X141240680Y-111273465D01*
X141306670Y-111296556D01*
X141306682Y-111296560D01*
X141580491Y-111359055D01*
X141580497Y-111359055D01*
X141580505Y-111359057D01*
X141766547Y-111380018D01*
X141859569Y-111390499D01*
X141859572Y-111390500D01*
X141859575Y-111390500D01*
X142140428Y-111390500D01*
X142140429Y-111390499D01*
X142283055Y-111374429D01*
X142419494Y-111359057D01*
X142419499Y-111359056D01*
X142419509Y-111359055D01*
X142693318Y-111296560D01*
X142958408Y-111203801D01*
X143211445Y-111081945D01*
X143449248Y-110932523D01*
X143668825Y-110757416D01*
X143867416Y-110558825D01*
X144042523Y-110339248D01*
X144191945Y-110101445D01*
X144313801Y-109848408D01*
X144406560Y-109583318D01*
X144465109Y-109326796D01*
X144499218Y-109265818D01*
X144560879Y-109232960D01*
X144630516Y-109238655D01*
X144686020Y-109281095D01*
X144709768Y-109346805D01*
X144710000Y-109354389D01*
X144710000Y-109925928D01*
X144749397Y-110174669D01*
X144827219Y-110414184D01*
X144941557Y-110638583D01*
X145089590Y-110842331D01*
X145089590Y-110842332D01*
X145267667Y-111020409D01*
X145471416Y-111168442D01*
X145695815Y-111282780D01*
X145935329Y-111360602D01*
X146060000Y-111380348D01*
X146060000Y-110033012D01*
X146117007Y-110065925D01*
X146244174Y-110100000D01*
X146375826Y-110100000D01*
X146502993Y-110065925D01*
X146560000Y-110033012D01*
X146560000Y-111380347D01*
X146684668Y-111360602D01*
X146684671Y-111360602D01*
X146924184Y-111282780D01*
X147148583Y-111168442D01*
X147352331Y-111020409D01*
X147352332Y-111020409D01*
X147530409Y-110842332D01*
X147530409Y-110842331D01*
X147678442Y-110638583D01*
X147792780Y-110414184D01*
X147870602Y-110174669D01*
X147910000Y-109925928D01*
X147910000Y-107150000D01*
X146810000Y-107150000D01*
X146810000Y-106650000D01*
X147910000Y-106650000D01*
X147910000Y-103894038D01*
X149709500Y-103894038D01*
X149709500Y-109945962D01*
X149733897Y-110100000D01*
X149748910Y-110194785D01*
X149826760Y-110434383D01*
X149941132Y-110658848D01*
X150089201Y-110862649D01*
X150089205Y-110862654D01*
X150267345Y-111040794D01*
X150267350Y-111040798D01*
X150323986Y-111081946D01*
X150471155Y-111188870D01*
X150575001Y-111241782D01*
X150695616Y-111303239D01*
X150695618Y-111303239D01*
X150695621Y-111303241D01*
X150935215Y-111381090D01*
X151184038Y-111420500D01*
X151184039Y-111420500D01*
X151435961Y-111420500D01*
X151435962Y-111420500D01*
X151684785Y-111381090D01*
X151924379Y-111303241D01*
X152148845Y-111188870D01*
X152352656Y-111040793D01*
X152530793Y-110862656D01*
X152678870Y-110658845D01*
X152793241Y-110434379D01*
X152871090Y-110194785D01*
X152910500Y-109945962D01*
X152910500Y-103894038D01*
X152871090Y-103645215D01*
X152793241Y-103405621D01*
X152793239Y-103405618D01*
X152793239Y-103405616D01*
X152719149Y-103260208D01*
X152678870Y-103181155D01*
X152659952Y-103155117D01*
X152530798Y-102977350D01*
X152530794Y-102977345D01*
X152352654Y-102799205D01*
X152352649Y-102799201D01*
X152148848Y-102651132D01*
X152148847Y-102651131D01*
X152148845Y-102651130D01*
X152078747Y-102615413D01*
X151924383Y-102536760D01*
X151684785Y-102458910D01*
X151435962Y-102419500D01*
X151184038Y-102419500D01*
X151059626Y-102439205D01*
X150935214Y-102458910D01*
X150695616Y-102536760D01*
X150471151Y-102651132D01*
X150267350Y-102799201D01*
X150267345Y-102799205D01*
X150089205Y-102977345D01*
X150089201Y-102977350D01*
X149941132Y-103181151D01*
X149826760Y-103405616D01*
X149748910Y-103645214D01*
X149720631Y-103823760D01*
X149709500Y-103894038D01*
X147910000Y-103894038D01*
X147910000Y-103874071D01*
X147870602Y-103625330D01*
X147792780Y-103385815D01*
X147678442Y-103161416D01*
X147530409Y-102957668D01*
X147530409Y-102957667D01*
X147352332Y-102779590D01*
X147148583Y-102631557D01*
X146924184Y-102517219D01*
X146684670Y-102439397D01*
X146560000Y-102419650D01*
X146560000Y-103766988D01*
X146502993Y-103734075D01*
X146375826Y-103700000D01*
X146244174Y-103700000D01*
X146117007Y-103734075D01*
X146060000Y-103766988D01*
X146060000Y-102419650D01*
X145935330Y-102439397D01*
X145935327Y-102439397D01*
X145695815Y-102517219D01*
X145471416Y-102631557D01*
X145267668Y-102779590D01*
X145267667Y-102779590D01*
X145089590Y-102957667D01*
X145089590Y-102957668D01*
X144941557Y-103161416D01*
X144827219Y-103385815D01*
X144749397Y-103625330D01*
X144710000Y-103874071D01*
X144710000Y-104425610D01*
X144690315Y-104492649D01*
X144637511Y-104538404D01*
X144568353Y-104548348D01*
X144504797Y-104519323D01*
X144467023Y-104460545D01*
X144465109Y-104453202D01*
X144406560Y-104196682D01*
X144406556Y-104196670D01*
X144383465Y-104130680D01*
X144313801Y-103931592D01*
X144191945Y-103678555D01*
X144042523Y-103440752D01*
X143867416Y-103221175D01*
X143668825Y-103022584D01*
X143449248Y-102847477D01*
X143211445Y-102698055D01*
X143211442Y-102698053D01*
X142958411Y-102576200D01*
X142693329Y-102483443D01*
X142693317Y-102483439D01*
X142419512Y-102420945D01*
X142419494Y-102420942D01*
X142140431Y-102389500D01*
X142140425Y-102389500D01*
X141859575Y-102389500D01*
X141859568Y-102389500D01*
X141580505Y-102420942D01*
X141580487Y-102420945D01*
X141306682Y-102483439D01*
X141306670Y-102483443D01*
X141041588Y-102576200D01*
X140788557Y-102698053D01*
X140550753Y-102847476D01*
X140331175Y-103022583D01*
X140132583Y-103221175D01*
X139957476Y-103440753D01*
X139808053Y-103678557D01*
X139686200Y-103931588D01*
X139593443Y-104196670D01*
X139593439Y-104196682D01*
X139530945Y-104470487D01*
X139530942Y-104470505D01*
X139499500Y-104749568D01*
X134830111Y-104749568D01*
X134876557Y-104658412D01*
X134942246Y-104456243D01*
X134975500Y-104246287D01*
X134975500Y-104033713D01*
X134942246Y-103823757D01*
X134876557Y-103621588D01*
X134780051Y-103432184D01*
X134780049Y-103432181D01*
X134780048Y-103432179D01*
X134655109Y-103260213D01*
X134504786Y-103109890D01*
X134332820Y-102984951D01*
X134332115Y-102984591D01*
X134324054Y-102980485D01*
X134273259Y-102932512D01*
X134256463Y-102864692D01*
X134278999Y-102798556D01*
X134324054Y-102759515D01*
X134332816Y-102755051D01*
X134411268Y-102698053D01*
X134504786Y-102630109D01*
X134504788Y-102630106D01*
X134504792Y-102630104D01*
X134655104Y-102479792D01*
X134655106Y-102479788D01*
X134655109Y-102479786D01*
X134780048Y-102307820D01*
X134780047Y-102307820D01*
X134780051Y-102307816D01*
X134876557Y-102118412D01*
X134942246Y-101916243D01*
X134975500Y-101706287D01*
X134975500Y-101493713D01*
X134942246Y-101283757D01*
X134876557Y-101081588D01*
X134780051Y-100892184D01*
X134780049Y-100892181D01*
X134780048Y-100892179D01*
X134655109Y-100720213D01*
X134504786Y-100569890D01*
X134332820Y-100444951D01*
X134143414Y-100348444D01*
X134143413Y-100348443D01*
X134143412Y-100348443D01*
X133941243Y-100282754D01*
X133941241Y-100282753D01*
X133941240Y-100282753D01*
X133779957Y-100257208D01*
X133731287Y-100249500D01*
X133018713Y-100249500D01*
X132970042Y-100257208D01*
X132808760Y-100282753D01*
X132606585Y-100348444D01*
X132417179Y-100444951D01*
X132245213Y-100569890D01*
X132094890Y-100720213D01*
X131969951Y-100892179D01*
X131873444Y-101081585D01*
X131807753Y-101283760D01*
X131774500Y-101493713D01*
X130228000Y-101493713D01*
X130228000Y-92459500D01*
X130247685Y-92392461D01*
X130300489Y-92346706D01*
X130352000Y-92335500D01*
X186198000Y-92335500D01*
X186265039Y-92355185D01*
G37*
%TD.AperFunction*%
%TD*%
M02*
