%TF.GenerationSoftware,KiCad,Pcbnew,8.0.9-8.0.9-0~ubuntu22.04.1*%
%TF.CreationDate,2025-10-19T14:14:38+05:45*%
%TF.ProjectId,camerapcb,63616d65-7261-4706-9362-2e6b69636164,rev?*%
%TF.SameCoordinates,Original*%
%TF.FileFunction,Copper,L1,Top*%
%TF.FilePolarity,Positive*%
%FSLAX46Y46*%
G04 Gerber Fmt 4.6, Leading zero omitted, Abs format (unit mm)*
G04 Created by KiCad (PCBNEW 8.0.9-8.0.9-0~ubuntu22.04.1) date 2025-10-19 14:14:38*
%MOMM*%
%LPD*%
G01*
G04 APERTURE LIST*
G04 Aperture macros list*
%AMRoundRect*
0 Rectangle with rounded corners*
0 $1 Rounding radius*
0 $2 $3 $4 $5 $6 $7 $8 $9 X,Y pos of 4 corners*
0 Add a 4 corners polygon primitive as box body*
4,1,4,$2,$3,$4,$5,$6,$7,$8,$9,$2,$3,0*
0 Add four circle primitives for the rounded corners*
1,1,$1+$1,$2,$3*
1,1,$1+$1,$4,$5*
1,1,$1+$1,$6,$7*
1,1,$1+$1,$8,$9*
0 Add four rect primitives between the rounded corners*
20,1,$1+$1,$2,$3,$4,$5,0*
20,1,$1+$1,$4,$5,$6,$7,0*
20,1,$1+$1,$6,$7,$8,$9,0*
20,1,$1+$1,$8,$9,$2,$3,0*%
G04 Aperture macros list end*
%TA.AperFunction,SMDPad,CuDef*%
%ADD10R,1.250000X0.300000*%
%TD*%
%TA.AperFunction,SMDPad,CuDef*%
%ADD11R,2.500000X2.000000*%
%TD*%
%TA.AperFunction,ComponentPad*%
%ADD12O,2.200000X1.700000*%
%TD*%
%TA.AperFunction,SMDPad,CuDef*%
%ADD13RoundRect,0.150000X0.587500X0.150000X-0.587500X0.150000X-0.587500X-0.150000X0.587500X-0.150000X0*%
%TD*%
%TA.AperFunction,SMDPad,CuDef*%
%ADD14RoundRect,0.200000X-0.200000X-0.275000X0.200000X-0.275000X0.200000X0.275000X-0.200000X0.275000X0*%
%TD*%
%TA.AperFunction,SMDPad,CuDef*%
%ADD15RoundRect,0.200000X0.275000X-0.200000X0.275000X0.200000X-0.275000X0.200000X-0.275000X-0.200000X0*%
%TD*%
%TA.AperFunction,SMDPad,CuDef*%
%ADD16RoundRect,0.250000X-0.475000X0.250000X-0.475000X-0.250000X0.475000X-0.250000X0.475000X0.250000X0*%
%TD*%
%TA.AperFunction,SMDPad,CuDef*%
%ADD17R,0.800000X0.800000*%
%TD*%
%TA.AperFunction,ComponentPad*%
%ADD18O,2.200000X8.000000*%
%TD*%
%TA.AperFunction,ComponentPad*%
%ADD19O,4.000000X8.000000*%
%TD*%
%TA.AperFunction,ViaPad*%
%ADD20C,1.500000*%
%TD*%
%TA.AperFunction,Conductor*%
%ADD21C,0.300000*%
%TD*%
G04 APERTURE END LIST*
D10*
%TO.P,J2,1,Pin_1*%
%TO.N,Net-(J2-Pin_1)*%
X167585000Y-110225000D03*
%TO.P,J2,2,Pin_2*%
%TO.N,unconnected-(J2-Pin_2-Pad2)*%
X167585000Y-109725000D03*
%TO.P,J2,3,Pin_3*%
%TO.N,/LED*%
X167585000Y-109225000D03*
%TO.P,J2,4,Pin_4*%
%TO.N,/SIGNAL*%
X167585000Y-108725000D03*
%TO.P,J2,5,Pin_5*%
%TO.N,GND*%
X167585000Y-108225000D03*
%TO.P,J2,6,Pin_6*%
%TO.N,unconnected-(J2-Pin_6-Pad6)*%
X167585000Y-107725000D03*
%TO.P,J2,7,Pin_7*%
%TO.N,unconnected-(J2-Pin_7-Pad7)*%
X167585000Y-107225000D03*
%TO.P,J2,8,Pin_8*%
%TO.N,/U1RX*%
X167585000Y-106725000D03*
%TO.P,J2,9,Pin_9*%
%TO.N,/U1TX*%
X167585000Y-106225000D03*
%TO.P,J2,10,Pin_10*%
%TO.N,GND*%
X167585000Y-105725000D03*
%TO.P,J2,11,Pin_11*%
%TO.N,+3V3*%
X167585000Y-105225000D03*
%TO.P,J2,12,Pin_12*%
%TO.N,unconnected-(J2-Pin_12-Pad12)*%
X167585000Y-104725000D03*
D11*
%TO.P,J2,13,Pin_13*%
%TO.N,GND*%
X170165000Y-103035000D03*
%TO.P,J2,14,Pin_14*%
X170165000Y-111915000D03*
%TD*%
D12*
%TO.P,J1,1,Pin_1*%
%TO.N,+3V3*%
X133375000Y-101600000D03*
%TO.P,J1,2,Pin_2*%
%TO.N,/U1TX*%
X133375000Y-104140000D03*
%TO.P,J1,3,Pin_3*%
%TO.N,/U1RX*%
X133375000Y-106680000D03*
%TO.P,J1,4,Pin_4*%
%TO.N,/SIGNAL*%
X133375000Y-109220000D03*
%TO.P,J1,5,Pin_5*%
%TO.N,GND*%
X133375000Y-111760000D03*
%TD*%
D13*
%TO.P,Q1,1,B*%
%TO.N,Net-(Q1-B)*%
X166812500Y-99800000D03*
%TO.P,Q1,2,E*%
%TO.N,GND*%
X166812500Y-97900000D03*
%TO.P,Q1,3,C*%
%TO.N,Net-(Q1-C)*%
X164937500Y-98850000D03*
%TD*%
D14*
%TO.P,R4,1*%
%TO.N,+3V3*%
X164800000Y-95725000D03*
%TO.P,R4,2*%
%TO.N,Net-(U1-A)*%
X166450000Y-95725000D03*
%TD*%
D15*
%TO.P,R5,1*%
%TO.N,Net-(SW1-ON)*%
X164325000Y-114450000D03*
%TO.P,R5,2*%
%TO.N,Net-(J2-Pin_1)*%
X164325000Y-112800000D03*
%TD*%
D16*
%TO.P,C2,1*%
%TO.N,+3V3*%
X164025000Y-102550000D03*
%TO.P,C2,2*%
%TO.N,GND*%
X164025000Y-104450000D03*
%TD*%
%TO.P,C1,1*%
%TO.N,+3V3*%
X161450000Y-102550000D03*
%TO.P,C1,2*%
%TO.N,GND*%
X161450000Y-104450000D03*
%TD*%
D17*
%TO.P,U1,1,K*%
%TO.N,Net-(Q1-C)*%
X168400000Y-96350000D03*
%TO.P,U1,2,A*%
%TO.N,Net-(U1-A)*%
X168400000Y-94750000D03*
%TD*%
D14*
%TO.P,R2,1*%
%TO.N,+3V3*%
X161125000Y-116550000D03*
%TO.P,R2,2*%
%TO.N,Net-(SW1-ON)*%
X162775000Y-116550000D03*
%TD*%
D15*
%TO.P,R3,1*%
%TO.N,Net-(Q1-B)*%
X170525000Y-96325000D03*
%TO.P,R3,2*%
%TO.N,GND*%
X170525000Y-94675000D03*
%TD*%
%TO.P,R1,1*%
%TO.N,/LED*%
X170475000Y-99600000D03*
%TO.P,R1,2*%
%TO.N,Net-(Q1-B)*%
X170475000Y-97950000D03*
%TD*%
D18*
%TO.P,SW1,1,COM*%
%TO.N,GND*%
X146310000Y-106900000D03*
D19*
%TO.P,SW1,2,ON*%
%TO.N,Net-(SW1-ON)*%
X142000000Y-106890000D03*
D18*
%TO.P,SW1,3,NC*%
%TO.N,unconnected-(SW1-NC-Pad3)*%
X151310000Y-106920000D03*
%TD*%
D20*
%TO.N,+3V3*%
X159387500Y-112415000D03*
X159507500Y-100275000D03*
%TO.N,GND*%
X156450000Y-116100000D03*
X162830000Y-108130000D03*
X133450000Y-116875000D03*
X156200000Y-101850000D03*
X133500000Y-96050000D03*
%TO.N,/SIGNAL*%
X138827500Y-115575000D03*
X155702500Y-112875000D03*
%TO.N,/U1RX*%
X152565000Y-113887500D03*
X140927500Y-114000000D03*
%TD*%
D21*
%TO.N,+3V3*%
X155775000Y-99325000D02*
X135648125Y-99325000D01*
X167527500Y-105225000D02*
X166737500Y-105225000D01*
X164017500Y-102555000D02*
X161467500Y-102555000D01*
X159507500Y-99485000D02*
X159507500Y-100275000D01*
X161467500Y-102555000D02*
X161467500Y-100842500D01*
X135648125Y-99325000D02*
X133376875Y-101596250D01*
X161467500Y-102555000D02*
X159005000Y-102555000D01*
X161467500Y-100842500D02*
X160900000Y-100275000D01*
X133376875Y-101596250D02*
X133375000Y-101596250D01*
X159387500Y-112415000D02*
X159387500Y-115145000D01*
X161317500Y-102555000D02*
X161087500Y-102325000D01*
X160767500Y-116525000D02*
X161107500Y-116525000D01*
X165067500Y-95755000D02*
X163237500Y-95755000D01*
X160900000Y-100275000D02*
X159507500Y-100275000D01*
X161467500Y-102555000D02*
X161317500Y-102555000D01*
X159005000Y-102555000D02*
X155775000Y-99325000D01*
X163907500Y-102445000D02*
X164017500Y-102555000D01*
X166737500Y-105225000D02*
X164067500Y-102555000D01*
X164067500Y-102555000D02*
X164017500Y-102555000D01*
X159387500Y-115145000D02*
X160767500Y-116525000D01*
X163237500Y-95755000D02*
X159507500Y-99485000D01*
%TO.N,GND*%
X162925000Y-108225000D02*
X162830000Y-108130000D01*
X169277500Y-108225000D02*
X162925000Y-108225000D01*
X161467500Y-104455000D02*
X164017500Y-104455000D01*
X169397500Y-108105000D02*
X169277500Y-108225000D01*
X165287500Y-105725000D02*
X169087500Y-105725000D01*
X169087500Y-105725000D02*
X169397500Y-106035000D01*
X169397500Y-106035000D02*
X169397500Y-108105000D01*
X164017500Y-104455000D02*
X165287500Y-105725000D01*
%TO.N,/SIGNAL*%
X134347500Y-109220000D02*
X133375000Y-109220000D01*
X165747500Y-109530000D02*
X166552500Y-108725000D01*
X166552500Y-108725000D02*
X167527500Y-108725000D01*
X138827500Y-115575000D02*
X138827500Y-113700000D01*
X138827500Y-113700000D02*
X134347500Y-109220000D01*
X155702500Y-112875000D02*
X159047500Y-109530000D01*
X159047500Y-109530000D02*
X165747500Y-109530000D01*
%TO.N,/U1TX*%
X165080393Y-106225000D02*
X164630393Y-105775000D01*
X167527500Y-106225000D02*
X165080393Y-106225000D01*
X164630393Y-105775000D02*
X158100000Y-105775000D01*
X152875000Y-100550000D02*
X139102500Y-100550000D01*
X158100000Y-105775000D02*
X152875000Y-100550000D01*
X135512500Y-104140000D02*
X133375000Y-104140000D01*
X139102500Y-100550000D02*
X135512500Y-104140000D01*
%TO.N,/U1RX*%
X140927500Y-113250000D02*
X134357500Y-106680000D01*
X134357500Y-106680000D02*
X133375000Y-106680000D01*
X152565000Y-113862500D02*
X159702500Y-106725000D01*
X152565000Y-113887500D02*
X152565000Y-113862500D01*
X140927500Y-114000000D02*
X140927500Y-113250000D01*
X159702500Y-106725000D02*
X167527500Y-106725000D01*
%TO.N,/LED*%
X170517500Y-99640000D02*
X172347500Y-101470000D01*
X172347500Y-107035000D02*
X170157500Y-109225000D01*
X170557500Y-99855000D02*
X170517500Y-99815000D01*
X170517500Y-99640000D02*
X170517500Y-99815000D01*
X170157500Y-109225000D02*
X167527500Y-109225000D01*
X172347500Y-101470000D02*
X172347500Y-107035000D01*
%TO.N,Net-(SW1-ON)*%
X142000000Y-106890000D02*
X142000000Y-110897500D01*
X149502500Y-118400000D02*
X161602500Y-118400000D01*
X142000000Y-110897500D02*
X149502500Y-118400000D01*
X164325000Y-114957500D02*
X164325000Y-114450000D01*
X162757500Y-116525000D02*
X164325000Y-114957500D01*
X162757500Y-117245000D02*
X162757500Y-116525000D01*
X161602500Y-118400000D02*
X162757500Y-117245000D01*
%TO.N,Net-(J2-Pin_1)*%
X164325000Y-112800000D02*
X166900000Y-110225000D01*
X166900000Y-110225000D02*
X167527500Y-110225000D01*
%TO.N,Net-(Q1-B)*%
X170550000Y-96825000D02*
X170550000Y-97957500D01*
X170550000Y-97957500D02*
X168707500Y-99800000D01*
X168707500Y-99800000D02*
X166812500Y-99800000D01*
%TO.N,Net-(Q1-C)*%
X168400000Y-98172500D02*
X168400000Y-96350000D01*
X164937500Y-98850000D02*
X167722500Y-98850000D01*
X167722500Y-98850000D02*
X168400000Y-98172500D01*
%TO.N,Net-(U1-A)*%
X166450000Y-95275000D02*
X166975000Y-94750000D01*
X166975000Y-94750000D02*
X168400000Y-94750000D01*
X166450000Y-95725000D02*
X166450000Y-95275000D01*
%TD*%
%TA.AperFunction,Conductor*%
%TO.N,GND*%
G36*
X166404794Y-107395185D02*
G01*
X166450549Y-107447989D01*
X166461045Y-107512753D01*
X166459500Y-107527122D01*
X166459500Y-107922869D01*
X166459501Y-107922880D01*
X166463931Y-107964093D01*
X166463883Y-107991038D01*
X166463869Y-107991164D01*
X166436901Y-108055619D01*
X166379367Y-108095263D01*
X166364835Y-108099084D01*
X166362767Y-108099495D01*
X166362757Y-108099498D01*
X166244374Y-108148534D01*
X166137826Y-108219726D01*
X166137825Y-108219727D01*
X165514373Y-108843181D01*
X165453050Y-108876666D01*
X165426692Y-108879500D01*
X158983429Y-108879500D01*
X158861486Y-108903757D01*
X158861480Y-108903758D01*
X158857760Y-108904497D01*
X158857757Y-108904498D01*
X158739366Y-108953537D01*
X158734446Y-108956167D01*
X158666042Y-108970403D01*
X158600800Y-108945398D01*
X158559435Y-108889089D01*
X158555078Y-108819355D01*
X158588318Y-108759126D01*
X159935627Y-107411819D01*
X159996950Y-107378334D01*
X160023308Y-107375500D01*
X166337755Y-107375500D01*
X166404794Y-107395185D01*
G37*
%TD.AperFunction*%
%TA.AperFunction,Conductor*%
G36*
X167454099Y-96297705D02*
G01*
X167493473Y-96355423D01*
X167499500Y-96393612D01*
X167499500Y-96797870D01*
X167499501Y-96797876D01*
X167505909Y-96857484D01*
X167533950Y-96932668D01*
X167538934Y-97002359D01*
X167505448Y-97063682D01*
X167444125Y-97097166D01*
X167417768Y-97100000D01*
X167062500Y-97100000D01*
X167062500Y-97776000D01*
X167042815Y-97843039D01*
X166990011Y-97888794D01*
X166938500Y-97900000D01*
X166812500Y-97900000D01*
X166812500Y-98026000D01*
X166792815Y-98093039D01*
X166740011Y-98138794D01*
X166688500Y-98150000D01*
X165906815Y-98150000D01*
X165843694Y-98132732D01*
X165785396Y-98098255D01*
X165785393Y-98098254D01*
X165627573Y-98052402D01*
X165627567Y-98052401D01*
X165590701Y-98049500D01*
X165590694Y-98049500D01*
X164284306Y-98049500D01*
X164284298Y-98049500D01*
X164247432Y-98052401D01*
X164247426Y-98052402D01*
X164089606Y-98098254D01*
X164089603Y-98098255D01*
X163948137Y-98181917D01*
X163948129Y-98181923D01*
X163831923Y-98298129D01*
X163831917Y-98298137D01*
X163748255Y-98439603D01*
X163748254Y-98439606D01*
X163702402Y-98597426D01*
X163702401Y-98597432D01*
X163699500Y-98634298D01*
X163699500Y-99065701D01*
X163702401Y-99102567D01*
X163702402Y-99102573D01*
X163748254Y-99260393D01*
X163748255Y-99260396D01*
X163831917Y-99401862D01*
X163831923Y-99401870D01*
X163948129Y-99518076D01*
X163948133Y-99518079D01*
X163948135Y-99518081D01*
X164089602Y-99601744D01*
X164131224Y-99613836D01*
X164247426Y-99647597D01*
X164247429Y-99647597D01*
X164247431Y-99647598D01*
X164284306Y-99650500D01*
X165450500Y-99650500D01*
X165517539Y-99670185D01*
X165563294Y-99722989D01*
X165574500Y-99774500D01*
X165574500Y-100015701D01*
X165577401Y-100052567D01*
X165577402Y-100052573D01*
X165623254Y-100210393D01*
X165623255Y-100210396D01*
X165706917Y-100351862D01*
X165706923Y-100351870D01*
X165823129Y-100468076D01*
X165823133Y-100468079D01*
X165823135Y-100468081D01*
X165964602Y-100551744D01*
X166006224Y-100563836D01*
X166122426Y-100597597D01*
X166122429Y-100597597D01*
X166122431Y-100597598D01*
X166159306Y-100600500D01*
X166159314Y-100600500D01*
X167465686Y-100600500D01*
X167465694Y-100600500D01*
X167502569Y-100597598D01*
X167502571Y-100597597D01*
X167502573Y-100597597D01*
X167544191Y-100585505D01*
X167660398Y-100551744D01*
X167763905Y-100490529D01*
X167802395Y-100467768D01*
X167865516Y-100450500D01*
X168771571Y-100450500D01*
X168856115Y-100433682D01*
X168897244Y-100425501D01*
X169015627Y-100376465D01*
X169039886Y-100360256D01*
X169047051Y-100355469D01*
X169060386Y-100346558D01*
X169122169Y-100305277D01*
X169362216Y-100065229D01*
X169423536Y-100031746D01*
X169493228Y-100036730D01*
X169549162Y-100078601D01*
X169556012Y-100088762D01*
X169556521Y-100089605D01*
X169556522Y-100089606D01*
X169629544Y-100210398D01*
X169644530Y-100235188D01*
X169764811Y-100355469D01*
X169764813Y-100355470D01*
X169764815Y-100355472D01*
X169910394Y-100443478D01*
X170072804Y-100494086D01*
X170143384Y-100500500D01*
X170406692Y-100500500D01*
X170473731Y-100520185D01*
X170494373Y-100536819D01*
X171280873Y-101323319D01*
X171314358Y-101384642D01*
X171309374Y-101454334D01*
X171267502Y-101510267D01*
X171202038Y-101534684D01*
X171193192Y-101535000D01*
X170415000Y-101535000D01*
X170415000Y-104535000D01*
X171462828Y-104535000D01*
X171462844Y-104534999D01*
X171522372Y-104528598D01*
X171522375Y-104528597D01*
X171529661Y-104525880D01*
X171599352Y-104520893D01*
X171660677Y-104554375D01*
X171694165Y-104615696D01*
X171697000Y-104642060D01*
X171697000Y-106714192D01*
X171677315Y-106781231D01*
X171660681Y-106801873D01*
X169924373Y-108538181D01*
X169863050Y-108571666D01*
X169836692Y-108574500D01*
X168831739Y-108574500D01*
X168764700Y-108554815D01*
X168718945Y-108502011D01*
X168708450Y-108437244D01*
X168709999Y-108422836D01*
X168710000Y-108422819D01*
X168710000Y-108375000D01*
X168694388Y-108359388D01*
X168680516Y-108355315D01*
X168648291Y-108325314D01*
X168628826Y-108299314D01*
X168604406Y-108233851D01*
X168619255Y-108165578D01*
X168628826Y-108150686D01*
X168648291Y-108124686D01*
X168696105Y-108088894D01*
X168710000Y-108075000D01*
X168710000Y-108027182D01*
X168709999Y-108027164D01*
X168706068Y-107990602D01*
X168706068Y-107964093D01*
X168710500Y-107922873D01*
X168710499Y-107527128D01*
X168710499Y-107527127D01*
X168710498Y-107527111D01*
X168706320Y-107488253D01*
X168706320Y-107461747D01*
X168710500Y-107422873D01*
X168710499Y-107027128D01*
X168710498Y-107027111D01*
X168706320Y-106988253D01*
X168706320Y-106961747D01*
X168710500Y-106922873D01*
X168710499Y-106527128D01*
X168710498Y-106527111D01*
X168706320Y-106488253D01*
X168706320Y-106461747D01*
X168710500Y-106422873D01*
X168710499Y-106027128D01*
X168706067Y-105985898D01*
X168706068Y-105959393D01*
X168709999Y-105922833D01*
X168710000Y-105922819D01*
X168710000Y-105875000D01*
X168694388Y-105859388D01*
X168680516Y-105855315D01*
X168648291Y-105825314D01*
X168628826Y-105799314D01*
X168604406Y-105733851D01*
X168619255Y-105665578D01*
X168628826Y-105650686D01*
X168629418Y-105649896D01*
X168631194Y-105647522D01*
X168648291Y-105624686D01*
X168696105Y-105588894D01*
X168710000Y-105575000D01*
X168710000Y-105527182D01*
X168709999Y-105527160D01*
X168706068Y-105490602D01*
X168706068Y-105464094D01*
X168710500Y-105422873D01*
X168710499Y-105027128D01*
X168710498Y-105027111D01*
X168706320Y-104988253D01*
X168706320Y-104961747D01*
X168710500Y-104922873D01*
X168710499Y-104656200D01*
X168730183Y-104589163D01*
X168782987Y-104543408D01*
X168847756Y-104532913D01*
X168867158Y-104534999D01*
X168867172Y-104535000D01*
X169915000Y-104535000D01*
X169915000Y-103285000D01*
X168415000Y-103285000D01*
X168415000Y-103953347D01*
X168395315Y-104020386D01*
X168342511Y-104066141D01*
X168277747Y-104076636D01*
X168257873Y-104074500D01*
X168257867Y-104074500D01*
X166912129Y-104074500D01*
X166912123Y-104074501D01*
X166852516Y-104080908D01*
X166717671Y-104131202D01*
X166717666Y-104131205D01*
X166715599Y-104132753D01*
X166713180Y-104133654D01*
X166709886Y-104135454D01*
X166709627Y-104134980D01*
X166650134Y-104157168D01*
X166581862Y-104142315D01*
X166553610Y-104121165D01*
X165286818Y-102854373D01*
X165253333Y-102793050D01*
X165250499Y-102766692D01*
X165250499Y-102249998D01*
X165250498Y-102249981D01*
X165239999Y-102147203D01*
X165239998Y-102147200D01*
X165230459Y-102118414D01*
X165186964Y-101987155D01*
X168415000Y-101987155D01*
X168415000Y-102785000D01*
X169915000Y-102785000D01*
X169915000Y-101535000D01*
X168867155Y-101535000D01*
X168807627Y-101541401D01*
X168807620Y-101541403D01*
X168672913Y-101591645D01*
X168672906Y-101591649D01*
X168557812Y-101677809D01*
X168557809Y-101677812D01*
X168471649Y-101792906D01*
X168471645Y-101792913D01*
X168421403Y-101927620D01*
X168421401Y-101927627D01*
X168415000Y-101987155D01*
X165186964Y-101987155D01*
X165184814Y-101980666D01*
X165092712Y-101831344D01*
X164968656Y-101707288D01*
X164875888Y-101650069D01*
X164819336Y-101615187D01*
X164819331Y-101615185D01*
X164777990Y-101601486D01*
X164652797Y-101560001D01*
X164652795Y-101560000D01*
X164550010Y-101549500D01*
X163499998Y-101549500D01*
X163499980Y-101549501D01*
X163397203Y-101560000D01*
X163397200Y-101560001D01*
X163230668Y-101615185D01*
X163230663Y-101615187D01*
X163081342Y-101707289D01*
X162957288Y-101831343D01*
X162957285Y-101831347D01*
X162948496Y-101845597D01*
X162896548Y-101892322D01*
X162842958Y-101904500D01*
X162632042Y-101904500D01*
X162565003Y-101884815D01*
X162526504Y-101845597D01*
X162517714Y-101831347D01*
X162517711Y-101831343D01*
X162393657Y-101707289D01*
X162393656Y-101707288D01*
X162244334Y-101615186D01*
X162244332Y-101615185D01*
X162244330Y-101615184D01*
X162244331Y-101615184D01*
X162202994Y-101601486D01*
X162145550Y-101561713D01*
X162118728Y-101497196D01*
X162118000Y-101483781D01*
X162118000Y-100778428D01*
X162093002Y-100652761D01*
X162093001Y-100652760D01*
X162093001Y-100652756D01*
X162043965Y-100534373D01*
X162043964Y-100534372D01*
X162043961Y-100534366D01*
X161972777Y-100427832D01*
X161970445Y-100425500D01*
X161882169Y-100337224D01*
X161755338Y-100210393D01*
X161314674Y-99769727D01*
X161314673Y-99769726D01*
X161314669Y-99769723D01*
X161208127Y-99698535D01*
X161089744Y-99649499D01*
X161089740Y-99649498D01*
X161084965Y-99648548D01*
X161080190Y-99647598D01*
X161080187Y-99647597D01*
X161080187Y-99647598D01*
X160964071Y-99624500D01*
X160964069Y-99624500D01*
X160643144Y-99624500D01*
X160576105Y-99604815D01*
X160541569Y-99571623D01*
X160518573Y-99538781D01*
X160496246Y-99472575D01*
X160513256Y-99404808D01*
X160532463Y-99379981D01*
X162262447Y-97649998D01*
X165577704Y-97649998D01*
X165577705Y-97650000D01*
X166562500Y-97650000D01*
X166562500Y-97100000D01*
X166159350Y-97100000D01*
X166122510Y-97102899D01*
X166122504Y-97102900D01*
X165964806Y-97148716D01*
X165964803Y-97148717D01*
X165823447Y-97232314D01*
X165823438Y-97232321D01*
X165707321Y-97348438D01*
X165707314Y-97348447D01*
X165623718Y-97489801D01*
X165577899Y-97647513D01*
X165577704Y-97649998D01*
X162262447Y-97649998D01*
X163470627Y-96441819D01*
X163531950Y-96408334D01*
X163558308Y-96405500D01*
X163963481Y-96405500D01*
X164030520Y-96425185D01*
X164051157Y-96441814D01*
X164164815Y-96555472D01*
X164310394Y-96643478D01*
X164472804Y-96694086D01*
X164543384Y-96700500D01*
X164543387Y-96700500D01*
X165056613Y-96700500D01*
X165056616Y-96700500D01*
X165127196Y-96694086D01*
X165289606Y-96643478D01*
X165435185Y-96555472D01*
X165435189Y-96555468D01*
X165537319Y-96453339D01*
X165598642Y-96419854D01*
X165668334Y-96424838D01*
X165712681Y-96453339D01*
X165814811Y-96555469D01*
X165814813Y-96555470D01*
X165814815Y-96555472D01*
X165960394Y-96643478D01*
X166122804Y-96694086D01*
X166193384Y-96700500D01*
X166193387Y-96700500D01*
X166706613Y-96700500D01*
X166706616Y-96700500D01*
X166777196Y-96694086D01*
X166939606Y-96643478D01*
X167085185Y-96555472D01*
X167205472Y-96435185D01*
X167269385Y-96329459D01*
X167320911Y-96282275D01*
X167389770Y-96270436D01*
X167454099Y-96297705D01*
G37*
%TD.AperFunction*%
%TA.AperFunction,Conductor*%
G36*
X155521231Y-99995185D02*
G01*
X155541873Y-100011819D01*
X158590325Y-103060272D01*
X158590326Y-103060273D01*
X158590329Y-103060275D01*
X158590331Y-103060277D01*
X158696873Y-103131465D01*
X158815256Y-103180501D01*
X158815260Y-103180501D01*
X158815261Y-103180502D01*
X158940928Y-103205500D01*
X158940931Y-103205500D01*
X160274126Y-103205500D01*
X160341165Y-103225185D01*
X160379664Y-103264402D01*
X160382288Y-103268656D01*
X160506344Y-103392712D01*
X160509628Y-103394737D01*
X160509653Y-103394753D01*
X160511445Y-103396746D01*
X160512011Y-103397193D01*
X160511934Y-103397289D01*
X160556379Y-103446699D01*
X160567603Y-103515661D01*
X160539761Y-103579744D01*
X160509665Y-103605826D01*
X160506660Y-103607679D01*
X160506655Y-103607683D01*
X160382684Y-103731654D01*
X160290643Y-103880875D01*
X160290641Y-103880880D01*
X160235494Y-104047302D01*
X160235493Y-104047309D01*
X160225000Y-104150013D01*
X160225000Y-104200000D01*
X162695929Y-104200000D01*
X162711135Y-104191696D01*
X162780827Y-104196677D01*
X162785998Y-104200000D01*
X163901000Y-104200000D01*
X163968039Y-104219685D01*
X164013794Y-104272489D01*
X164025000Y-104324000D01*
X164025000Y-104576000D01*
X164005315Y-104643039D01*
X163952511Y-104688794D01*
X163901000Y-104700000D01*
X162779064Y-104700000D01*
X162763853Y-104708305D01*
X162694161Y-104703318D01*
X162688998Y-104700000D01*
X160225001Y-104700000D01*
X160225001Y-104749986D01*
X160235494Y-104852697D01*
X160271547Y-104961496D01*
X160273949Y-105031324D01*
X160238217Y-105091366D01*
X160175697Y-105122559D01*
X160153841Y-105124500D01*
X158420808Y-105124500D01*
X158353769Y-105104815D01*
X158333127Y-105088181D01*
X153432128Y-100187181D01*
X153398643Y-100125858D01*
X153403627Y-100056166D01*
X153445499Y-100000233D01*
X153510963Y-99975816D01*
X153519809Y-99975500D01*
X155454192Y-99975500D01*
X155521231Y-99995185D01*
G37*
%TD.AperFunction*%
%TA.AperFunction,Conductor*%
G36*
X186265039Y-92355185D02*
G01*
X186310794Y-92407989D01*
X186322000Y-92459500D01*
X186322000Y-121610500D01*
X186302315Y-121677539D01*
X186249511Y-121723294D01*
X186198000Y-121734500D01*
X130352000Y-121734500D01*
X130284961Y-121714815D01*
X130239206Y-121662011D01*
X130228000Y-121610500D01*
X130228000Y-101493713D01*
X131774500Y-101493713D01*
X131774500Y-101706286D01*
X131800141Y-101868181D01*
X131807754Y-101916243D01*
X131828686Y-101980666D01*
X131873444Y-102118414D01*
X131969951Y-102307820D01*
X132094890Y-102479786D01*
X132245213Y-102630109D01*
X132417182Y-102755050D01*
X132425946Y-102759516D01*
X132476742Y-102807491D01*
X132493536Y-102875312D01*
X132470998Y-102941447D01*
X132425946Y-102980484D01*
X132417182Y-102984949D01*
X132245213Y-103109890D01*
X132094890Y-103260213D01*
X131969951Y-103432179D01*
X131873444Y-103621585D01*
X131807753Y-103823760D01*
X131787229Y-103953347D01*
X131774500Y-104033713D01*
X131774500Y-104246287D01*
X131807754Y-104456243D01*
X131869175Y-104645277D01*
X131873444Y-104658414D01*
X131969951Y-104847820D01*
X132094890Y-105019786D01*
X132245213Y-105170109D01*
X132417182Y-105295050D01*
X132425946Y-105299516D01*
X132476742Y-105347491D01*
X132493536Y-105415312D01*
X132470998Y-105481447D01*
X132425946Y-105520484D01*
X132417182Y-105524949D01*
X132245213Y-105649890D01*
X132094890Y-105800213D01*
X131969951Y-105972179D01*
X131873444Y-106161585D01*
X131807753Y-106363760D01*
X131781881Y-106527111D01*
X131774500Y-106573713D01*
X131774500Y-106786287D01*
X131807754Y-106996243D01*
X131841164Y-107099069D01*
X131873444Y-107198414D01*
X131969951Y-107387820D01*
X132094890Y-107559786D01*
X132245213Y-107710109D01*
X132417182Y-107835050D01*
X132425946Y-107839516D01*
X132476742Y-107887491D01*
X132493536Y-107955312D01*
X132470998Y-108021447D01*
X132425946Y-108060484D01*
X132417182Y-108064949D01*
X132245213Y-108189890D01*
X132094890Y-108340213D01*
X131969951Y-108512179D01*
X131873444Y-108701585D01*
X131873443Y-108701587D01*
X131873443Y-108701588D01*
X131807754Y-108903757D01*
X131774500Y-109113713D01*
X131774500Y-109326287D01*
X131807754Y-109536243D01*
X131873291Y-109737945D01*
X131873444Y-109738414D01*
X131969951Y-109927820D01*
X132094890Y-110099786D01*
X132245213Y-110250109D01*
X132417179Y-110375048D01*
X132417181Y-110375049D01*
X132417184Y-110375051D01*
X132426493Y-110379794D01*
X132477290Y-110427766D01*
X132494087Y-110495587D01*
X132471552Y-110561722D01*
X132426502Y-110600762D01*
X132417443Y-110605378D01*
X132245540Y-110730272D01*
X132245535Y-110730276D01*
X132095276Y-110880535D01*
X132095272Y-110880540D01*
X131970379Y-111052442D01*
X131873904Y-111241782D01*
X131808242Y-111443870D01*
X131808242Y-111443873D01*
X131797769Y-111510000D01*
X132941988Y-111510000D01*
X132909075Y-111567007D01*
X132875000Y-111694174D01*
X132875000Y-111825826D01*
X132909075Y-111952993D01*
X132941988Y-112010000D01*
X131797769Y-112010000D01*
X131808242Y-112076126D01*
X131808242Y-112076129D01*
X131873904Y-112278217D01*
X131970379Y-112467557D01*
X132095272Y-112639459D01*
X132095276Y-112639464D01*
X132245535Y-112789723D01*
X132245540Y-112789727D01*
X132417442Y-112914620D01*
X132606782Y-113011095D01*
X132808870Y-113076757D01*
X133018754Y-113110000D01*
X133125000Y-113110000D01*
X133125000Y-112193012D01*
X133182007Y-112225925D01*
X133309174Y-112260000D01*
X133440826Y-112260000D01*
X133567993Y-112225925D01*
X133625000Y-112193012D01*
X133625000Y-113110000D01*
X133731246Y-113110000D01*
X133941127Y-113076757D01*
X133941130Y-113076757D01*
X134143217Y-113011095D01*
X134332557Y-112914620D01*
X134504459Y-112789727D01*
X134504464Y-112789723D01*
X134654723Y-112639464D01*
X134654727Y-112639459D01*
X134779620Y-112467557D01*
X134876095Y-112278217D01*
X134941757Y-112076129D01*
X134941757Y-112076126D01*
X134952231Y-112010000D01*
X133808012Y-112010000D01*
X133840925Y-111952993D01*
X133875000Y-111825826D01*
X133875000Y-111694174D01*
X133840925Y-111567007D01*
X133808012Y-111510000D01*
X134952231Y-111510000D01*
X134941757Y-111443873D01*
X134941757Y-111443870D01*
X134876095Y-111241782D01*
X134779620Y-111052442D01*
X134654727Y-110880540D01*
X134654723Y-110880535D01*
X134504464Y-110730276D01*
X134504459Y-110730272D01*
X134332555Y-110605377D01*
X134323500Y-110600763D01*
X134272706Y-110552788D01*
X134255912Y-110484966D01*
X134278451Y-110418832D01*
X134323508Y-110379793D01*
X134332816Y-110375051D01*
X134391813Y-110332186D01*
X134457616Y-110308707D01*
X134525670Y-110324531D01*
X134552378Y-110344824D01*
X138140681Y-113933127D01*
X138174166Y-113994450D01*
X138177000Y-114020808D01*
X138177000Y-114439355D01*
X138157315Y-114506394D01*
X138124124Y-114540930D01*
X138020618Y-114613405D01*
X137865902Y-114768121D01*
X137740400Y-114947357D01*
X137740398Y-114947361D01*
X137647926Y-115145668D01*
X137647922Y-115145677D01*
X137591293Y-115357020D01*
X137591293Y-115357024D01*
X137572267Y-115574500D01*
X137572223Y-115575000D01*
X137584867Y-115719531D01*
X137591293Y-115792975D01*
X137591293Y-115792979D01*
X137647922Y-116004322D01*
X137647924Y-116004326D01*
X137647925Y-116004330D01*
X137694161Y-116103484D01*
X137740397Y-116202638D01*
X137740398Y-116202639D01*
X137865902Y-116381877D01*
X138020623Y-116536598D01*
X138199861Y-116662102D01*
X138398170Y-116754575D01*
X138609523Y-116811207D01*
X138792426Y-116827208D01*
X138827498Y-116830277D01*
X138827500Y-116830277D01*
X138827502Y-116830277D01*
X138855754Y-116827805D01*
X139045477Y-116811207D01*
X139256830Y-116754575D01*
X139455139Y-116662102D01*
X139634377Y-116536598D01*
X139789098Y-116381877D01*
X139914602Y-116202639D01*
X140007075Y-116004330D01*
X140063707Y-115792977D01*
X140082777Y-115575000D01*
X140082733Y-115574500D01*
X140079069Y-115532618D01*
X140063707Y-115357023D01*
X140008314Y-115150294D01*
X140009977Y-115080445D01*
X140049139Y-115022582D01*
X140113368Y-114995078D01*
X140182270Y-115006664D01*
X140199209Y-115016624D01*
X140299861Y-115087102D01*
X140498170Y-115179575D01*
X140709523Y-115236207D01*
X140892426Y-115252208D01*
X140927498Y-115255277D01*
X140927500Y-115255277D01*
X140927502Y-115255277D01*
X140955754Y-115252805D01*
X141145477Y-115236207D01*
X141356830Y-115179575D01*
X141555139Y-115087102D01*
X141734377Y-114961598D01*
X141889098Y-114806877D01*
X142014602Y-114627639D01*
X142107075Y-114429330D01*
X142163707Y-114217977D01*
X142182777Y-114000000D01*
X142182291Y-113994450D01*
X142179069Y-113957618D01*
X142163707Y-113782023D01*
X142107075Y-113570670D01*
X142014602Y-113372362D01*
X142014600Y-113372359D01*
X142014599Y-113372357D01*
X141889099Y-113193124D01*
X141823167Y-113127192D01*
X141734377Y-113038402D01*
X141555139Y-112912898D01*
X141555138Y-112912897D01*
X141555136Y-112912896D01*
X141484112Y-112879777D01*
X141437229Y-112839556D01*
X141436641Y-112840039D01*
X141433904Y-112836704D01*
X141433412Y-112836282D01*
X141432777Y-112835331D01*
X141432774Y-112835328D01*
X141432772Y-112835325D01*
X134954171Y-106356725D01*
X134923921Y-106307361D01*
X134915119Y-106280272D01*
X134876557Y-106161588D01*
X134876557Y-106161587D01*
X134780048Y-105972179D01*
X134655109Y-105800213D01*
X134504786Y-105649890D01*
X134332820Y-105524951D01*
X134332115Y-105524591D01*
X134324054Y-105520485D01*
X134273259Y-105472512D01*
X134256463Y-105404692D01*
X134278999Y-105338556D01*
X134324054Y-105299515D01*
X134332816Y-105295051D01*
X134367677Y-105269723D01*
X134504786Y-105170109D01*
X134504788Y-105170106D01*
X134504792Y-105170104D01*
X134655104Y-105019792D01*
X134655106Y-105019788D01*
X134655109Y-105019786D01*
X134782915Y-104843875D01*
X134784259Y-104844851D01*
X134830705Y-104802834D01*
X134884618Y-104790500D01*
X135576571Y-104790500D01*
X135661115Y-104773682D01*
X135702244Y-104765501D01*
X135820627Y-104716465D01*
X135927169Y-104645277D01*
X139335627Y-101236819D01*
X139396950Y-101203334D01*
X139423308Y-101200500D01*
X152554192Y-101200500D01*
X152621231Y-101220185D01*
X152641873Y-101236819D01*
X157685325Y-106280272D01*
X157685326Y-106280273D01*
X157685329Y-106280275D01*
X157685331Y-106280277D01*
X157791873Y-106351465D01*
X157910256Y-106400501D01*
X157910260Y-106400501D01*
X157910261Y-106400502D01*
X158035928Y-106425500D01*
X158035931Y-106425500D01*
X158782692Y-106425500D01*
X158849731Y-106445185D01*
X158895486Y-106497989D01*
X158905430Y-106567147D01*
X158876405Y-106630703D01*
X158870373Y-106637181D01*
X152890919Y-112616633D01*
X152829596Y-112650118D01*
X152788442Y-112650940D01*
X152788370Y-112651765D01*
X152782977Y-112651293D01*
X152673150Y-112641684D01*
X152565002Y-112632223D01*
X152564998Y-112632223D01*
X152419682Y-112644936D01*
X152347023Y-112651293D01*
X152347020Y-112651293D01*
X152135677Y-112707922D01*
X152135668Y-112707926D01*
X151937361Y-112800398D01*
X151937357Y-112800400D01*
X151758121Y-112925902D01*
X151603402Y-113080621D01*
X151477900Y-113259857D01*
X151477898Y-113259861D01*
X151385426Y-113458168D01*
X151385422Y-113458177D01*
X151328793Y-113669520D01*
X151328793Y-113669524D01*
X151309723Y-113887497D01*
X151309723Y-113887502D01*
X151328793Y-114105475D01*
X151328793Y-114105479D01*
X151385422Y-114316822D01*
X151385424Y-114316826D01*
X151385425Y-114316830D01*
X151431661Y-114415984D01*
X151477897Y-114515138D01*
X151477898Y-114515139D01*
X151603402Y-114694377D01*
X151758123Y-114849098D01*
X151937361Y-114974602D01*
X152135670Y-115067075D01*
X152347023Y-115123707D01*
X152529926Y-115139708D01*
X152564998Y-115142777D01*
X152565000Y-115142777D01*
X152565002Y-115142777D01*
X152593254Y-115140305D01*
X152782977Y-115123707D01*
X152994330Y-115067075D01*
X153192639Y-114974602D01*
X153371877Y-114849098D01*
X153526598Y-114694377D01*
X153652102Y-114515139D01*
X153744575Y-114316830D01*
X153801207Y-114105477D01*
X153820277Y-113887500D01*
X153801207Y-113669523D01*
X153793683Y-113641444D01*
X153795344Y-113571596D01*
X153825774Y-113521670D01*
X154269662Y-113077782D01*
X154330983Y-113044299D01*
X154400675Y-113049283D01*
X154456608Y-113091155D01*
X154477116Y-113133371D01*
X154522923Y-113304324D01*
X154522925Y-113304330D01*
X154554649Y-113372362D01*
X154615397Y-113502638D01*
X154615398Y-113502639D01*
X154740902Y-113681877D01*
X154895623Y-113836598D01*
X155074861Y-113962102D01*
X155273170Y-114054575D01*
X155484523Y-114111207D01*
X155667426Y-114127208D01*
X155702498Y-114130277D01*
X155702500Y-114130277D01*
X155702502Y-114130277D01*
X155730754Y-114127805D01*
X155920477Y-114111207D01*
X156131830Y-114054575D01*
X156330139Y-113962102D01*
X156509377Y-113836598D01*
X156664098Y-113681877D01*
X156789602Y-113502639D01*
X156882075Y-113304330D01*
X156938707Y-113092977D01*
X156957777Y-112875000D01*
X156938707Y-112657023D01*
X156936467Y-112648663D01*
X156938126Y-112578816D01*
X156968557Y-112528887D01*
X159280627Y-110216819D01*
X159341950Y-110183334D01*
X159368308Y-110180500D01*
X165725191Y-110180500D01*
X165792230Y-110200185D01*
X165837985Y-110252989D01*
X165847929Y-110322147D01*
X165818904Y-110385703D01*
X165812872Y-110392181D01*
X164341873Y-111863181D01*
X164280550Y-111896666D01*
X164254192Y-111899500D01*
X163993384Y-111899500D01*
X163974145Y-111901248D01*
X163922807Y-111905913D01*
X163760393Y-111956522D01*
X163614811Y-112044530D01*
X163494530Y-112164811D01*
X163406522Y-112310393D01*
X163355913Y-112472807D01*
X163349500Y-112543386D01*
X163349500Y-113056613D01*
X163355913Y-113127192D01*
X163355913Y-113127194D01*
X163355914Y-113127196D01*
X163385417Y-113221877D01*
X163406522Y-113289606D01*
X163494530Y-113435188D01*
X163596661Y-113537319D01*
X163630146Y-113598642D01*
X163625162Y-113668334D01*
X163596661Y-113712681D01*
X163494531Y-113814810D01*
X163494530Y-113814811D01*
X163406522Y-113960393D01*
X163355913Y-114122807D01*
X163350782Y-114179275D01*
X163349500Y-114193384D01*
X163349500Y-114706616D01*
X163355914Y-114777196D01*
X163378318Y-114849093D01*
X163388124Y-114880563D01*
X163389274Y-114950423D01*
X163357419Y-115005133D01*
X162824373Y-115538181D01*
X162763050Y-115571666D01*
X162736692Y-115574500D01*
X162518384Y-115574500D01*
X162499145Y-115576248D01*
X162447807Y-115580913D01*
X162285393Y-115631522D01*
X162139811Y-115719530D01*
X162139810Y-115719531D01*
X162037681Y-115821661D01*
X161976358Y-115855146D01*
X161906666Y-115850162D01*
X161862319Y-115821661D01*
X161760188Y-115719530D01*
X161614606Y-115631522D01*
X161493703Y-115593848D01*
X161452196Y-115580914D01*
X161452194Y-115580913D01*
X161452192Y-115580913D01*
X161402778Y-115576423D01*
X161381616Y-115574500D01*
X160868384Y-115574500D01*
X160854341Y-115575776D01*
X160805731Y-115580193D01*
X160737185Y-115566656D01*
X160706829Y-115544383D01*
X160074319Y-114911873D01*
X160040834Y-114850550D01*
X160038000Y-114824192D01*
X160038000Y-113550644D01*
X160057685Y-113483605D01*
X160090877Y-113449069D01*
X160110700Y-113435189D01*
X160194377Y-113376598D01*
X160349098Y-113221877D01*
X160474602Y-113042639D01*
X160567075Y-112844330D01*
X160623707Y-112632977D01*
X160642777Y-112415000D01*
X160623707Y-112197023D01*
X160567075Y-111985670D01*
X160474602Y-111787362D01*
X160474600Y-111787359D01*
X160474599Y-111787357D01*
X160349099Y-111608124D01*
X160307982Y-111567007D01*
X160194377Y-111453402D01*
X160043212Y-111347555D01*
X160015138Y-111327897D01*
X159869531Y-111260000D01*
X159816830Y-111235425D01*
X159816826Y-111235424D01*
X159816822Y-111235422D01*
X159605477Y-111178793D01*
X159387502Y-111159723D01*
X159387498Y-111159723D01*
X159248541Y-111171880D01*
X159169523Y-111178793D01*
X159169520Y-111178793D01*
X158958177Y-111235422D01*
X158958170Y-111235424D01*
X158958170Y-111235425D01*
X158933131Y-111247100D01*
X158759861Y-111327898D01*
X158759857Y-111327900D01*
X158580621Y-111453402D01*
X158425902Y-111608121D01*
X158300400Y-111787357D01*
X158300398Y-111787361D01*
X158207926Y-111985668D01*
X158207922Y-111985677D01*
X158151293Y-112197020D01*
X158151293Y-112197023D01*
X158146525Y-112251517D01*
X158132223Y-112414997D01*
X158132223Y-112415002D01*
X158151293Y-112632975D01*
X158151293Y-112632979D01*
X158207922Y-112844322D01*
X158207924Y-112844326D01*
X158207925Y-112844330D01*
X158233042Y-112898193D01*
X158300397Y-113042638D01*
X158300398Y-113042639D01*
X158425902Y-113221877D01*
X158580623Y-113376598D01*
X158664298Y-113435188D01*
X158684123Y-113449069D01*
X158727748Y-113503645D01*
X158737000Y-113550644D01*
X158737000Y-115209069D01*
X158737000Y-115209071D01*
X158736999Y-115209071D01*
X158761997Y-115334738D01*
X158761999Y-115334744D01*
X158811035Y-115453127D01*
X158882223Y-115559669D01*
X158882226Y-115559673D01*
X158882227Y-115559674D01*
X160194785Y-116872231D01*
X160228270Y-116933554D01*
X160230594Y-116948678D01*
X160230914Y-116952196D01*
X160281522Y-117114606D01*
X160369530Y-117260188D01*
X160489811Y-117380469D01*
X160489813Y-117380470D01*
X160489815Y-117380472D01*
X160635394Y-117468478D01*
X160759387Y-117507115D01*
X160817534Y-117545852D01*
X160845508Y-117609877D01*
X160834427Y-117678862D01*
X160787808Y-117730905D01*
X160722496Y-117749500D01*
X149823308Y-117749500D01*
X149756269Y-117729815D01*
X149735627Y-117713181D01*
X143255649Y-111233203D01*
X143222164Y-111171880D01*
X143227148Y-111102188D01*
X143269020Y-111046255D01*
X143277341Y-111040539D01*
X143449248Y-110932523D01*
X143668825Y-110757416D01*
X143867416Y-110558825D01*
X144042523Y-110339248D01*
X144191945Y-110101445D01*
X144313801Y-109848408D01*
X144406560Y-109583318D01*
X144465109Y-109326796D01*
X144499218Y-109265818D01*
X144560879Y-109232960D01*
X144630516Y-109238655D01*
X144686020Y-109281095D01*
X144709768Y-109346805D01*
X144710000Y-109354389D01*
X144710000Y-109925928D01*
X144749397Y-110174669D01*
X144827219Y-110414184D01*
X144941557Y-110638583D01*
X145089590Y-110842331D01*
X145089590Y-110842332D01*
X145267667Y-111020409D01*
X145471416Y-111168442D01*
X145695815Y-111282780D01*
X145935329Y-111360602D01*
X146060000Y-111380348D01*
X146060000Y-110033012D01*
X146117007Y-110065925D01*
X146244174Y-110100000D01*
X146375826Y-110100000D01*
X146502993Y-110065925D01*
X146560000Y-110033012D01*
X146560000Y-111380347D01*
X146684668Y-111360602D01*
X146684671Y-111360602D01*
X146924184Y-111282780D01*
X147148583Y-111168442D01*
X147352331Y-111020409D01*
X147352332Y-111020409D01*
X147530409Y-110842332D01*
X147530409Y-110842331D01*
X147678442Y-110638583D01*
X147792780Y-110414184D01*
X147870602Y-110174669D01*
X147910000Y-109925928D01*
X147910000Y-107150000D01*
X146810000Y-107150000D01*
X146810000Y-106650000D01*
X147910000Y-106650000D01*
X147910000Y-103894038D01*
X149709500Y-103894038D01*
X149709500Y-109945962D01*
X149733897Y-110100000D01*
X149748910Y-110194785D01*
X149826760Y-110434383D01*
X149941132Y-110658848D01*
X150089201Y-110862649D01*
X150089205Y-110862654D01*
X150267345Y-111040794D01*
X150267350Y-111040798D01*
X150323986Y-111081946D01*
X150471155Y-111188870D01*
X150575001Y-111241782D01*
X150695616Y-111303239D01*
X150695618Y-111303239D01*
X150695621Y-111303241D01*
X150935215Y-111381090D01*
X151184038Y-111420500D01*
X151184039Y-111420500D01*
X151435961Y-111420500D01*
X151435962Y-111420500D01*
X151684785Y-111381090D01*
X151924379Y-111303241D01*
X152148845Y-111188870D01*
X152352656Y-111040793D01*
X152530793Y-110862656D01*
X152678870Y-110658845D01*
X152793241Y-110434379D01*
X152871090Y-110194785D01*
X152910500Y-109945962D01*
X152910500Y-103894038D01*
X152871090Y-103645215D01*
X152793241Y-103405621D01*
X152793239Y-103405618D01*
X152793239Y-103405616D01*
X152751747Y-103324184D01*
X152678870Y-103181155D01*
X152642768Y-103131465D01*
X152530798Y-102977350D01*
X152530794Y-102977345D01*
X152352654Y-102799205D01*
X152352649Y-102799201D01*
X152148848Y-102651132D01*
X152148847Y-102651131D01*
X152148845Y-102651130D01*
X152078747Y-102615413D01*
X151924383Y-102536760D01*
X151684785Y-102458910D01*
X151435962Y-102419500D01*
X151184038Y-102419500D01*
X151059626Y-102439205D01*
X150935214Y-102458910D01*
X150695616Y-102536760D01*
X150471151Y-102651132D01*
X150267350Y-102799201D01*
X150267345Y-102799205D01*
X150089205Y-102977345D01*
X150089201Y-102977350D01*
X149941132Y-103181151D01*
X149826760Y-103405616D01*
X149748910Y-103645214D01*
X149720631Y-103823760D01*
X149709500Y-103894038D01*
X147910000Y-103894038D01*
X147910000Y-103874071D01*
X147870602Y-103625330D01*
X147792780Y-103385815D01*
X147678442Y-103161416D01*
X147530409Y-102957668D01*
X147530409Y-102957667D01*
X147352332Y-102779590D01*
X147148583Y-102631557D01*
X146924184Y-102517219D01*
X146684670Y-102439397D01*
X146560000Y-102419650D01*
X146560000Y-103766988D01*
X146502993Y-103734075D01*
X146375826Y-103700000D01*
X146244174Y-103700000D01*
X146117007Y-103734075D01*
X146060000Y-103766988D01*
X146060000Y-102419650D01*
X145935330Y-102439397D01*
X145935327Y-102439397D01*
X145695815Y-102517219D01*
X145471416Y-102631557D01*
X145267668Y-102779590D01*
X145267667Y-102779590D01*
X145089590Y-102957667D01*
X145089590Y-102957668D01*
X144941557Y-103161416D01*
X144827219Y-103385815D01*
X144749397Y-103625330D01*
X144710000Y-103874071D01*
X144710000Y-104425610D01*
X144690315Y-104492649D01*
X144637511Y-104538404D01*
X144568353Y-104548348D01*
X144504797Y-104519323D01*
X144467023Y-104460545D01*
X144465109Y-104453202D01*
X144406559Y-104196677D01*
X144406556Y-104196670D01*
X144354292Y-104047309D01*
X144313801Y-103931592D01*
X144191945Y-103678555D01*
X144042523Y-103440752D01*
X143867416Y-103221175D01*
X143668825Y-103022584D01*
X143449248Y-102847477D01*
X143211445Y-102698055D01*
X143211442Y-102698053D01*
X142958411Y-102576200D01*
X142693329Y-102483443D01*
X142693317Y-102483439D01*
X142419512Y-102420945D01*
X142419494Y-102420942D01*
X142140431Y-102389500D01*
X142140425Y-102389500D01*
X141859575Y-102389500D01*
X141859568Y-102389500D01*
X141580505Y-102420942D01*
X141580487Y-102420945D01*
X141306682Y-102483439D01*
X141306670Y-102483443D01*
X141041588Y-102576200D01*
X140788557Y-102698053D01*
X140550753Y-102847476D01*
X140331175Y-103022583D01*
X140132583Y-103221175D01*
X139957476Y-103440753D01*
X139808053Y-103678557D01*
X139686200Y-103931588D01*
X139593443Y-104196670D01*
X139593441Y-104196677D01*
X139530945Y-104470487D01*
X139530942Y-104470505D01*
X139499500Y-104749568D01*
X139499500Y-109030431D01*
X139530942Y-109309494D01*
X139530945Y-109309512D01*
X139593439Y-109583317D01*
X139593443Y-109583329D01*
X139686200Y-109848411D01*
X139808053Y-110101442D01*
X139808055Y-110101445D01*
X139957477Y-110339248D01*
X140071703Y-110482483D01*
X140127769Y-110552788D01*
X140132584Y-110558825D01*
X140331175Y-110757416D01*
X140550752Y-110932523D01*
X140788555Y-111081945D01*
X141041592Y-111203801D01*
X141202200Y-111260000D01*
X141306670Y-111296556D01*
X141306682Y-111296560D01*
X141495281Y-111339606D01*
X141555369Y-111372815D01*
X149087824Y-118905271D01*
X149087831Y-118905277D01*
X149194371Y-118976464D01*
X149194370Y-118976464D01*
X149229044Y-118990826D01*
X149312756Y-119025501D01*
X149312760Y-119025501D01*
X149312761Y-119025502D01*
X149438428Y-119050500D01*
X149438431Y-119050500D01*
X161666571Y-119050500D01*
X161751115Y-119033682D01*
X161792244Y-119025501D01*
X161910627Y-118976465D01*
X162017169Y-118905277D01*
X163262777Y-117659669D01*
X163333966Y-117553126D01*
X163383001Y-117434743D01*
X163383003Y-117434731D01*
X163384767Y-117428919D01*
X163386738Y-117429516D01*
X163414754Y-117375931D01*
X163416269Y-117374387D01*
X163530472Y-117260185D01*
X163618478Y-117114606D01*
X163669086Y-116952196D01*
X163675500Y-116881616D01*
X163675500Y-116578308D01*
X163695185Y-116511269D01*
X163711819Y-116490627D01*
X164247619Y-115954827D01*
X164830277Y-115372169D01*
X164862948Y-115323270D01*
X164901894Y-115286049D01*
X165035185Y-115205472D01*
X165155472Y-115085185D01*
X165243478Y-114939606D01*
X165294086Y-114777196D01*
X165300500Y-114706616D01*
X165300500Y-114193384D01*
X165294086Y-114122804D01*
X165243478Y-113960394D01*
X165155472Y-113814815D01*
X165155470Y-113814813D01*
X165155469Y-113814811D01*
X165053339Y-113712681D01*
X165019854Y-113651358D01*
X165024838Y-113581666D01*
X165053339Y-113537319D01*
X165155468Y-113435189D01*
X165155469Y-113435188D01*
X165155472Y-113435185D01*
X165243478Y-113289606D01*
X165294086Y-113127196D01*
X165300500Y-113056616D01*
X165300500Y-112962844D01*
X168415000Y-112962844D01*
X168421401Y-113022372D01*
X168421403Y-113022379D01*
X168471645Y-113157086D01*
X168471649Y-113157093D01*
X168557809Y-113272187D01*
X168557812Y-113272190D01*
X168672906Y-113358350D01*
X168672913Y-113358354D01*
X168807620Y-113408596D01*
X168807627Y-113408598D01*
X168867155Y-113414999D01*
X168867172Y-113415000D01*
X169915000Y-113415000D01*
X170415000Y-113415000D01*
X171462828Y-113415000D01*
X171462844Y-113414999D01*
X171522372Y-113408598D01*
X171522379Y-113408596D01*
X171657086Y-113358354D01*
X171657093Y-113358350D01*
X171772187Y-113272190D01*
X171772190Y-113272187D01*
X171858350Y-113157093D01*
X171858354Y-113157086D01*
X171908596Y-113022379D01*
X171908598Y-113022372D01*
X171914999Y-112962844D01*
X171915000Y-112962827D01*
X171915000Y-112165000D01*
X170415000Y-112165000D01*
X170415000Y-113415000D01*
X169915000Y-113415000D01*
X169915000Y-112165000D01*
X168415000Y-112165000D01*
X168415000Y-112962844D01*
X165300500Y-112962844D01*
X165300500Y-112795808D01*
X165320185Y-112728769D01*
X165336819Y-112708127D01*
X167133127Y-110911819D01*
X167194450Y-110878334D01*
X167220808Y-110875500D01*
X167606003Y-110875500D01*
X167606011Y-110875499D01*
X168257871Y-110875499D01*
X168257872Y-110875499D01*
X168257874Y-110875498D01*
X168257884Y-110875498D01*
X168277743Y-110873363D01*
X168346503Y-110885767D01*
X168397641Y-110933377D01*
X168415000Y-110996652D01*
X168415000Y-111665000D01*
X169915000Y-111665000D01*
X170415000Y-111665000D01*
X171915000Y-111665000D01*
X171915000Y-110867172D01*
X171914999Y-110867155D01*
X171908598Y-110807627D01*
X171908596Y-110807620D01*
X171858354Y-110672913D01*
X171858350Y-110672906D01*
X171772190Y-110557812D01*
X171772187Y-110557809D01*
X171657093Y-110471649D01*
X171657086Y-110471645D01*
X171522379Y-110421403D01*
X171522372Y-110421401D01*
X171462844Y-110415000D01*
X170415000Y-110415000D01*
X170415000Y-111665000D01*
X169915000Y-111665000D01*
X169915000Y-110415000D01*
X168867161Y-110415000D01*
X168847750Y-110417087D01*
X168778991Y-110404679D01*
X168727855Y-110357067D01*
X168710499Y-110293799D01*
X168710499Y-110027128D01*
X168708954Y-110012753D01*
X168721361Y-109943994D01*
X168768972Y-109892857D01*
X168832244Y-109875500D01*
X170221571Y-109875500D01*
X170306115Y-109858682D01*
X170347244Y-109850501D01*
X170465627Y-109801465D01*
X170473107Y-109796466D01*
X170473110Y-109796466D01*
X170560693Y-109737945D01*
X170572169Y-109730277D01*
X172852777Y-107449669D01*
X172923965Y-107343127D01*
X172941222Y-107301465D01*
X172973001Y-107224744D01*
X172998000Y-107099069D01*
X172998000Y-101405931D01*
X172998000Y-101405928D01*
X172973002Y-101280261D01*
X172973001Y-101280260D01*
X172973001Y-101280256D01*
X172923965Y-101161873D01*
X172900053Y-101126086D01*
X172890604Y-101111945D01*
X172852778Y-101055332D01*
X172852772Y-101055325D01*
X171486819Y-99689372D01*
X171453334Y-99628049D01*
X171450500Y-99601691D01*
X171450500Y-99343386D01*
X171444086Y-99272807D01*
X171444086Y-99272804D01*
X171393478Y-99110394D01*
X171305472Y-98964815D01*
X171305470Y-98964813D01*
X171305469Y-98964811D01*
X171203339Y-98862681D01*
X171169854Y-98801358D01*
X171174838Y-98731666D01*
X171203339Y-98687319D01*
X171305468Y-98585189D01*
X171305469Y-98585188D01*
X171305472Y-98585185D01*
X171393478Y-98439606D01*
X171444086Y-98277196D01*
X171450500Y-98206616D01*
X171450500Y-97693384D01*
X171444086Y-97622804D01*
X171393478Y-97460394D01*
X171305472Y-97314815D01*
X171305470Y-97314813D01*
X171305469Y-97314811D01*
X171240838Y-97250180D01*
X171207353Y-97188857D01*
X171212337Y-97119165D01*
X171240834Y-97074822D01*
X171355472Y-96960185D01*
X171443478Y-96814606D01*
X171494086Y-96652196D01*
X171500500Y-96581616D01*
X171500500Y-96068384D01*
X171494086Y-95997804D01*
X171443478Y-95835394D01*
X171355472Y-95689815D01*
X171355470Y-95689813D01*
X171355469Y-95689811D01*
X171252984Y-95587326D01*
X171219499Y-95526003D01*
X171224483Y-95456311D01*
X171252985Y-95411963D01*
X171355071Y-95309878D01*
X171355072Y-95309877D01*
X171443019Y-95164395D01*
X171493590Y-95002106D01*
X171500000Y-94931572D01*
X171500000Y-94925000D01*
X169550001Y-94925000D01*
X169550001Y-94931582D01*
X169556408Y-95002102D01*
X169556409Y-95002107D01*
X169606981Y-95164396D01*
X169694927Y-95309877D01*
X169797015Y-95411965D01*
X169830500Y-95473288D01*
X169825516Y-95542980D01*
X169797015Y-95587327D01*
X169694531Y-95689810D01*
X169694530Y-95689811D01*
X169606522Y-95835393D01*
X169555913Y-95997807D01*
X169549500Y-96068386D01*
X169549500Y-96581613D01*
X169555913Y-96652192D01*
X169555913Y-96652194D01*
X169555914Y-96652196D01*
X169606522Y-96814606D01*
X169694528Y-96960185D01*
X169759162Y-97024819D01*
X169792646Y-97086140D01*
X169787662Y-97155832D01*
X169759162Y-97200180D01*
X169644529Y-97314813D01*
X169556522Y-97460393D01*
X169505913Y-97622807D01*
X169499500Y-97693386D01*
X169499500Y-98036692D01*
X169479815Y-98103731D01*
X169463181Y-98124373D01*
X169262181Y-98325373D01*
X169200858Y-98358858D01*
X169131166Y-98353874D01*
X169075233Y-98312002D01*
X169050816Y-98246538D01*
X169050500Y-98237692D01*
X169050500Y-97249749D01*
X169070185Y-97182710D01*
X169100190Y-97150482D01*
X169102548Y-97148717D01*
X169157546Y-97107546D01*
X169243796Y-96992331D01*
X169294091Y-96857483D01*
X169300500Y-96797873D01*
X169300499Y-95902128D01*
X169294091Y-95842517D01*
X169291434Y-95835394D01*
X169243797Y-95707671D01*
X169243796Y-95707669D01*
X169181394Y-95624311D01*
X169156977Y-95558847D01*
X169171828Y-95490574D01*
X169181394Y-95475689D01*
X169243796Y-95392331D01*
X169294091Y-95257483D01*
X169300500Y-95197873D01*
X169300499Y-94418427D01*
X169550000Y-94418427D01*
X169550000Y-94425000D01*
X170275000Y-94425000D01*
X170775000Y-94425000D01*
X171499999Y-94425000D01*
X171499999Y-94418417D01*
X171493591Y-94347897D01*
X171493590Y-94347892D01*
X171443018Y-94185603D01*
X171355072Y-94040122D01*
X171234877Y-93919927D01*
X171089395Y-93831980D01*
X171089396Y-93831980D01*
X170927105Y-93781409D01*
X170927106Y-93781409D01*
X170856572Y-93775000D01*
X170775000Y-93775000D01*
X170775000Y-94425000D01*
X170275000Y-94425000D01*
X170275000Y-93775000D01*
X170274999Y-93774999D01*
X170193417Y-93775000D01*
X170122897Y-93781408D01*
X170122892Y-93781409D01*
X169960603Y-93831981D01*
X169815122Y-93919927D01*
X169694927Y-94040122D01*
X169606980Y-94185604D01*
X169556409Y-94347893D01*
X169550000Y-94418427D01*
X169300499Y-94418427D01*
X169300499Y-94302128D01*
X169295299Y-94253757D01*
X169294091Y-94242516D01*
X169243797Y-94107671D01*
X169243793Y-94107664D01*
X169157547Y-93992455D01*
X169157544Y-93992452D01*
X169042335Y-93906206D01*
X169042328Y-93906202D01*
X168907482Y-93855908D01*
X168907483Y-93855908D01*
X168847883Y-93849501D01*
X168847881Y-93849500D01*
X168847873Y-93849500D01*
X168847864Y-93849500D01*
X167952129Y-93849500D01*
X167952123Y-93849501D01*
X167892516Y-93855908D01*
X167757671Y-93906202D01*
X167757664Y-93906206D01*
X167642457Y-93992451D01*
X167642451Y-93992457D01*
X167599515Y-94049812D01*
X167543581Y-94091682D01*
X167500249Y-94099500D01*
X166910929Y-94099500D01*
X166785261Y-94124497D01*
X166785255Y-94124499D01*
X166666874Y-94173534D01*
X166560326Y-94244726D01*
X166037406Y-94767646D01*
X165986617Y-94798350D01*
X165960396Y-94806521D01*
X165814811Y-94894530D01*
X165814810Y-94894531D01*
X165712681Y-94996661D01*
X165651358Y-95030146D01*
X165581666Y-95025162D01*
X165537319Y-94996661D01*
X165435188Y-94894530D01*
X165289606Y-94806522D01*
X165289603Y-94806521D01*
X165127196Y-94755914D01*
X165127194Y-94755913D01*
X165127192Y-94755913D01*
X165077778Y-94751423D01*
X165056616Y-94749500D01*
X164543384Y-94749500D01*
X164524145Y-94751248D01*
X164472807Y-94755913D01*
X164310393Y-94806522D01*
X164164811Y-94894530D01*
X164044531Y-95014810D01*
X164044528Y-95014814D01*
X164026491Y-95044651D01*
X163974963Y-95091838D01*
X163920375Y-95104500D01*
X163173429Y-95104500D01*
X163047761Y-95129497D01*
X163047751Y-95129500D01*
X162998720Y-95149810D01*
X162929381Y-95178530D01*
X162929363Y-95178540D01*
X162822832Y-95249721D01*
X162822825Y-95249727D01*
X159002225Y-99070327D01*
X158962760Y-99129391D01*
X158912066Y-99172880D01*
X158879860Y-99187898D01*
X158700621Y-99313402D01*
X158545902Y-99468121D01*
X158420400Y-99647357D01*
X158420398Y-99647361D01*
X158327926Y-99845668D01*
X158327922Y-99845677D01*
X158271293Y-100057020D01*
X158271293Y-100057024D01*
X158254453Y-100249515D01*
X158252223Y-100275000D01*
X158271293Y-100492977D01*
X158299326Y-100597597D01*
X158300992Y-100603814D01*
X158299329Y-100673664D01*
X158260167Y-100731527D01*
X158195938Y-100759031D01*
X158127036Y-100747445D01*
X158093536Y-100723589D01*
X156189673Y-98819726D01*
X156083134Y-98748540D01*
X156083127Y-98748535D01*
X155964744Y-98699499D01*
X155964738Y-98699497D01*
X155839071Y-98674500D01*
X155839069Y-98674500D01*
X135584056Y-98674500D01*
X135584054Y-98674500D01*
X135458386Y-98699497D01*
X135458376Y-98699500D01*
X135409345Y-98719810D01*
X135340006Y-98748530D01*
X135339988Y-98748540D01*
X135233457Y-98819721D01*
X135233450Y-98819727D01*
X133838455Y-100214722D01*
X133777132Y-100248207D01*
X133736177Y-100249377D01*
X133736138Y-100249882D01*
X133731452Y-100249512D01*
X133731382Y-100249515D01*
X133731287Y-100249500D01*
X133018713Y-100249500D01*
X132970042Y-100257208D01*
X132808760Y-100282753D01*
X132606585Y-100348444D01*
X132417179Y-100444951D01*
X132245213Y-100569890D01*
X132094890Y-100720213D01*
X131969951Y-100892179D01*
X131873444Y-101081585D01*
X131807753Y-101283760D01*
X131774500Y-101493713D01*
X130228000Y-101493713D01*
X130228000Y-92459500D01*
X130247685Y-92392461D01*
X130300489Y-92346706D01*
X130352000Y-92335500D01*
X186198000Y-92335500D01*
X186265039Y-92355185D01*
G37*
%TD.AperFunction*%
%TD*%
M02*
